<svg xmlns:dc="http://purl.org/dc/elements/1.1/" xmlns:cc="http://creativecommons.org/ns#" xmlns:rdf="http://www.w3.org/1999/02/22-rdf-syntax-ns#" xmlns:svg="http://www.w3.org/2000/svg" xmlns="http://www.w3.org/2000/svg" viewBox="0 0 797.01202 220.46001" height="220.46001" width="797.01202" xml:space="preserve" id="svg2"><metadata></metadata><defs id="defs6"><linearGradient id="linearGradient30" spreadMethod="pad" gradientTransform="matrix(1.1262163,7.8252673,7.8252673,-1.1262163,99.048386,127.47955)" gradientUnits="userSpaceOnUse" y2="0" x2="1" y1="0" x1="0"><stop id="stop24" offset="0" style="stop-opacity:1;stop-color:#aec424"></stop><stop id="stop26" offset="0.00068359" style="stop-opacity:1;stop-color:#aec424"></stop><stop id="stop28" offset="1" style="stop-opacity:1;stop-color:#fcefaf"></stop></linearGradient><linearGradient id="linearGradient60" spreadMethod="pad" gradientTransform="matrix(-7.2488232,18.785669,18.785669,7.2488232,78.868774,113.79319)" gradientUnits="userSpaceOnUse" y2="0" x2="1" y1="0" x1="0"><stop id="stop54" offset="0" style="stop-opacity:1;stop-color:#aec424"></stop><stop id="stop56" offset="0.00068359" style="stop-opacity:1;stop-color:#aec424"></stop><stop id="stop58" offset="1" style="stop-opacity:1;stop-color:#fcefaf"></stop></linearGradient><linearGradient id="linearGradient82" spreadMethod="pad" gradientTransform="matrix(9.7051687,13.441906,13.441906,-9.7051687,87.647903,109.83456)" gradientUnits="userSpaceOnUse" y2="0" x2="1" y1="0" x1="0"><stop id="stop76" offset="0" style="stop-opacity:1;stop-color:#aec424"></stop><stop id="stop78" offset="0.00068359" style="stop-opacity:1;stop-color:#aec424"></stop><stop id="stop80" offset="1" style="stop-opacity:1;stop-color:#fcefaf"></stop></linearGradient><linearGradient id="linearGradient104" spreadMethod="pad" gradientTransform="matrix(1.0390556,16.417007,16.417007,-1.0390556,85.455795,107.91257)" gradientUnits="userSpaceOnUse" y2="0" x2="1" y1="0" x1="0"><stop id="stop98" offset="0" style="stop-opacity:1;stop-color:#aec424"></stop><stop id="stop100" offset="0.00068359" style="stop-opacity:1;stop-color:#aec424"></stop><stop id="stop102" offset="1" style="stop-opacity:1;stop-color:#fcefaf"></stop></linearGradient><linearGradient id="linearGradient126" spreadMethod="pad" gradientTransform="matrix(-1.0231593,4.3822107,4.3822107,1.0231593,110.87182,127.43529)" gradientUnits="userSpaceOnUse" y2="0" x2="1" y1="0" x1="0"><stop id="stop120" offset="0" style="stop-opacity:1;stop-color:#aec424"></stop><stop id="stop122" offset="0.00068359" style="stop-opacity:1;stop-color:#aec424"></stop><stop id="stop124" offset="1" style="stop-opacity:1;stop-color:#fcefaf"></stop></linearGradient><linearGradient id="linearGradient152" spreadMethod="pad" gradientTransform="matrix(-13.445902,20.168831,20.168831,13.445902,127.61426,108.39664)" gradientUnits="userSpaceOnUse" y2="0" x2="1" y1="0" x1="0"><stop id="stop146" offset="0" style="stop-opacity:1;stop-color:#aec424"></stop><stop id="stop148" offset="0.00068359" style="stop-opacity:1;stop-color:#aec424"></stop><stop id="stop150" offset="1" style="stop-opacity:1;stop-color:#fcefaf"></stop></linearGradient><linearGradient id="linearGradient172" spreadMethod="pad" gradientTransform="matrix(-2.4406731,46.608173,46.608173,2.4406731,99.514435,66.942665)" gradientUnits="userSpaceOnUse" y2="0" x2="1" y1="0" x1="0"><stop id="stop168" offset="0" style="stop-opacity:1;stop-color:#aec424"></stop><stop id="stop170" offset="1" style="stop-opacity:1;stop-color:#fcefaf"></stop></linearGradient><linearGradient id="linearGradient192" spreadMethod="pad" gradientTransform="matrix(1.5553533,32.247917,32.247917,-1.5553533,71.92553,93.062675)" gradientUnits="userSpaceOnUse" y2="0" x2="1" y1="0" x1="0"><stop id="stop188" offset="0" style="stop-opacity:1;stop-color:#aec424"></stop><stop id="stop190" offset="1" style="stop-opacity:1;stop-color:#fcefaf"></stop></linearGradient><linearGradient id="linearGradient212" spreadMethod="pad" gradientTransform="matrix(-15.381486,47.226582,47.226582,15.381486,120.96458,82.796829)" gradientUnits="userSpaceOnUse" y2="0" x2="1" y1="0" x1="0"><stop id="stop208" offset="0" style="stop-opacity:1;stop-color:#aec424"></stop><stop id="stop210" offset="1" style="stop-opacity:1;stop-color:#fcefaf"></stop></linearGradient><linearGradient id="linearGradient232" spreadMethod="pad" gradientTransform="matrix(21.957411,47.468617,47.468617,-21.957411,119.68925,66.458466)" gradientUnits="userSpaceOnUse" y2="0" x2="1" y1="0" x1="0"><stop id="stop228" offset="0" style="stop-opacity:1;stop-color:#aec424"></stop><stop id="stop230" offset="1" style="stop-opacity:1;stop-color:#fcefaf"></stop></linearGradient><linearGradient id="linearGradient252" spreadMethod="pad" gradientTransform="matrix(33.651207,0,0,-33.651207,115.78125,87.207634)" gradientUnits="userSpaceOnUse" y2="0" x2="1" y1="0" x1="0"><stop id="stop248" offset="0" style="stop-opacity:1;stop-color:#046236"></stop><stop id="stop250" offset="1" style="stop-opacity:1;stop-color:#89a323"></stop></linearGradient><linearGradient id="linearGradient272" spreadMethod="pad" gradientTransform="matrix(-5.1961188,12.032176,12.032176,5.1961188,120.97877,97.310799)" gradientUnits="userSpaceOnUse" y2="0" x2="1" y1="0" x1="0"><stop id="stop268" offset="0" style="stop-opacity:1;stop-color:#046236"></stop><stop id="stop270" offset="1" style="stop-opacity:1;stop-color:#89a323"></stop></linearGradient><linearGradient id="linearGradient292" spreadMethod="pad" gradientTransform="matrix(-33.190445,76.856064,76.856064,33.190445,113.8408,50.492878)" gradientUnits="userSpaceOnUse" y2="0" x2="1" y1="0" x1="0"><stop id="stop288" offset="0" style="stop-opacity:1;stop-color:#046236"></stop><stop id="stop290" offset="1" style="stop-opacity:1;stop-color:#89a323"></stop></linearGradient><linearGradient id="linearGradient312" spreadMethod="pad" gradientTransform="matrix(-33.926178,78.559738,78.559738,33.926178,101.07043,42.808838)" gradientUnits="userSpaceOnUse" y2="0" x2="1" y1="0" x1="0"><stop id="stop308" offset="0" style="stop-opacity:1;stop-color:#046236"></stop><stop id="stop310" offset="1" style="stop-opacity:1;stop-color:#89a323"></stop></linearGradient><clipPath id="clipPath360" clipPathUnits="userSpaceOnUse"><path id="path358" d="M 0,165.345 H 597.759 V 0 H 0 Z"></path></clipPath></defs><g transform="matrix(1.3333333,0,0,-1.3333333,0,220.46)" id="g10"><g id="g12"><g id="g14"><g id="g20"><g id="g22"><path id="path32" style="fill:url(#linearGradient30);fill-rule:evenodd;stroke:none" d="m 109.352,128.679 -0.136,0.464 -0.07,0.209 -0.067,0.209 -0.091,0.209 -0.092,0.209 -0.09,0.184 -0.092,0.186 -0.114,0.186 -0.137,0.186 -0.3,0.336 -0.064,0.082 -0.092,0.092 -0.181,0.046 -0.481,0.117 -0.204,0.07 -0.227,0.068 -0.253,0.069 -0.135,0.036 -0.115,0.035 -0.25,0.046 -0.274,0.069 -0.228,0.071 -0.228,0.069 -0.25,0.07 -0.25,0.045 -0.252,0.071 -0.25,0.069 -0.251,0.046 -0.229,0.069 -0.249,0.071 -0.253,0.046 -0.247,0.069 -0.004,0.001 h -0.001 l -0.25,0.068 -0.251,0.048 -0.25,0.069 -0.25,0.046 -0.25,0.069 v 0.001 l -0.253,0.047 -0.248,0.069 -0.216,0.036 -0.036,0.01 -0.274,0.046 -0.251,0.071 -0.501,0.091 -0.273,0.07 -0.251,0.048 -0.251,0.046 -0.273,0.046 -0.253,0.046 -0.251,0.07 -0.274,0.046 -0.271,0.047 -0.25,0.046 -0.274,0.046 -0.252,0.047 v 0.001 l -0.274,0.021 -0.273,0.048 -0.546,0.092 -0.274,0.023 -0.276,0.047 -0.273,0.024 -0.086,0.014 -0.186,0.032 -0.297,0.023 -0.273,0.023 -0.297,0.023 -0.274,0.023 -0.317,0.023 -0.274,0.023 h -0.048 -0.296 l -0.272,0.023 H 92.71 92.413 92.391 l -0.343,-0.023 -0.319,-0.023 -0.341,-0.023 -0.319,-0.046 -0.298,-0.069 -0.272,-0.07 -0.251,-0.07 -0.227,-0.117 -0.183,-0.115 -0.155,-1.037 -0.006,-0.006 -0.09,-0.646 -0.001,-0.004 -0.183,-1.299 -0.111,-0.782 -0.184,-1.144 -0.183,-1.298 -0.099,-0.699 -0.196,-1.226 -0.185,-1.3 -0.035,-0.266 -0.054,-0.382 -0.069,-0.51 0.172,-0.145 0.512,-0.482 0.629,-0.548 0.329,-0.288 0.614,-0.579 0.436,-0.379 0.521,-0.457 0.618,-0.555 0.325,-0.296 -0.008,-0.006 0.639,-0.557 0.303,-0.275 -0.005,-0.004 0.315,-0.276 0.003,-0.003 0.319,-0.277 0.326,-0.296 -0.006,-0.005 0.411,-0.372 0.957,0.464 0.011,0.01 -0.011,-0.01 0.388,0.194 1.025,0.502 0.029,0.027 1.384,0.692 z"></path></g></g></g></g><g transform="translate(82.2671,131.9967)" id="g34"><path id="path36" style="fill:#fff6b1;fill-opacity:1;fill-rule:evenodd;stroke:none" d="m 0,0 -18.032,0.603 -0.047,-0.14 -0.136,-0.347 -0.182,-0.512 -0.206,-0.625 -0.09,-0.348 -0.092,-0.324 -0.069,-0.348 -0.044,-0.326 -0.046,-0.301 v -0.278 l 0.023,-0.255 0.067,-0.209 1.575,-0.324 15.957,2.25 0.183,0.208 0.411,0.487 0.455,0.51 z"></path></g><g transform="translate(89.4263,132.5997)" id="g38"><path id="path40" style="fill:#fff6b1;fill-opacity:1;fill-rule:evenodd;stroke:none" d="m 0,0 -0.227,0.047 -0.569,0.115 -0.868,0.163 -1.047,0.209 -1.164,0.208 -1.186,0.209 -1.14,0.162 -0.958,0.093 -0.5,0.046 -1.3,0.138 -0.865,0.071 -0.982,0.046 -1.07,0.046 h -1.119 L -13.542,1.531 -14.111,1.507 -14.683,1.461 -15.229,1.39 -15.776,1.322 -16.301,1.229 -16.802,1.136 -17.304,0.997 -17.76,0.858 -18.192,0.696 -18.581,0.487 -18.944,0.278 -19.24,0.023 l -0.276,-0.278 -0.227,-0.28 -0.159,-0.347 13.929,-3.595 3.465,2.527 z"></path></g><g id="g42"><g id="g44"><g id="g50"><g id="g52"><path id="path62" style="fill:url(#linearGradient60);fill-rule:evenodd;stroke:none" d="m 83.386,117.661 h -10e-4 10e-4 l -0.092,1.23 -0.114,1.229 -0.091,1.231 -0.114,1.223 -0.045,0.631 -0.036,0.472 -0.01,0.132 -0.023,0.301 -0.023,0.324 -10e-4,-10e-4 10e-4,10e-4 -0.007,0.086 -0.038,0.518 -0.113,1.253 -0.011,0.142 -0.036,0.484 -10e-4,-0.001 10e-4,0.001 -0.05,0.667 -0.087,1.189 -0.084,1.134 -0.052,0.721 -0.035,0.482 -0.012,0.145 -0.046,0.742 -1.322,-1.485 h -0.204 l -0.006,-0.005 0.006,0.005 -0.23,-0.01 -0.546,-0.013 -1.551,-0.069 -1.52,-0.047 -0.804,-0.024 -0.013,-0.012 0.013,0.012 -1.512,-0.067 -0.836,-0.025 -1.551,-0.045 -1.535,-0.071 -0.79,-0.024 -0.86,-0.026 -1.464,-0.043 -0.009,-0.007 -4.119,-0.156 -0.16,-1.854 0.388,-1.787 0.41,-0.627 0.498,-0.758 0.323,-0.494 0.37,-0.563 0.451,-0.689 0.547,-0.858 0.549,-0.835 0.273,-0.418 0.015,-0.025 0.257,-0.393 0.001,10e-4 -0.001,-10e-4 0.224,-0.341 0.05,-0.075 v 0 0 l 0.464,-0.709 0.357,-0.545 0.286,-0.437 0.51,-0.816 0.024,-0.022 0.297,-0.372 0.579,-0.695 0.356,-0.44 0.03,-0.036 0.288,-0.36 0.639,-0.764 0.616,-0.766 0.637,-0.766 0.616,-0.765 0.639,-0.765 0.616,-0.765 0.637,-0.765 0.006,0.004 -0.006,-0.004 0.616,-0.767 7.684,6.82 z"></path></g></g></g></g><g id="g64"><g id="g66"><g id="g72"><g id="g74"><path id="path84" style="fill:url(#linearGradient82);fill-rule:evenodd;stroke:none" d="m 108.395,124.133 -0.069,0.441 -0.137,0.464 -0.09,0.232 -0.092,0.255 -0.113,0.255 -0.138,0.278 -0.159,0.255 -0.182,0.279 -0.205,0.302 -0.206,0.277 -0.343,0.442 -0.386,0.487 -0.206,0.255 -0.228,0.255 -0.227,0.232 -0.251,0.232 -9.075,0.395 -5.745,0.138 -3.818,0.068 -2.017,0.049 -2.325,0.069 0.09,-1.183 0.09,-1.298 0.083,-1.159 0.056,-0.791 0.091,-1.32 0.091,-1.301 0.091,-1.298 0.009,-0.141 0.036,-0.509 0.092,-1.298 0.091,-1.3 0.012,-0.188 0.032,-0.461 0.049,-0.692 0.066,-1.257 0.046,-0.641 v -0.007 l 0.008,-0.102 0.038,-0.548 0.091,-1.298 0.068,-1.3 0.011,-0.004 0.035,-0.646 0.046,-0.649 h -0.002 l 0.07,-1.299 0.045,-0.635 v -0.015 l 0.046,-0.648 17.555,-6.147 0.327,0.515 0.014,-0.005 0.601,0.983 0.357,0.572 -0.003,0.001 0.186,0.3 0.067,0.254 0.16,0.58 h 0.001 l 0.03,0.113 0.131,0.468 0.01,0.041 0.147,0.538 0.297,1.16 0.319,1.16 0.29,1.157 0.166,0.605 10e-4,0.001 0.159,0.58 0.296,1.16 0.092,0.346 0.044,0.114 0.048,0.096 0.089,0.255 0.098,0.276 0.108,0.256 0.038,0.117 0.076,0.186 0.043,0.144 0.071,0.158 0.092,0.278 0.113,0.278 0.115,0.301 0.091,0.279 0.091,0.279 0.01,0.027 0.012,-0.004 0.054,0.161 0.037,0.094 0.092,0.301 0.114,0.279 0.09,0.279 0.115,0.301 0.182,0.556 0.114,0.278 0.091,0.303 0.093,0.278 0.09,0.279 0.115,0.3 0.025,0.108 0.064,0.17 0.091,0.303 0.034,0.135 0.06,0.166 0.033,0.152 0.034,0.104 0.06,0.227 0.032,0.096 0.068,0.255 0.009,0.045 0.014,0.049 0.067,0.255 0.018,0.178 0.028,0.1 v 0.14 l 0.024,0.208 0.023,0.208 0.067,0.255 0.068,0.303 0.012,0.05 0.011,-0.004 0.047,0.255 0.067,0.301 0.046,0.301 0.022,0.326 v 0.393 z"></path></g></g></g></g><g id="g86"><g id="g88"><g id="g94"><g id="g96"><path id="path106" style="fill:url(#linearGradient104);fill-rule:evenodd;stroke:none" d="m 91.342,124.25 -1.733,1.461 -2.21,1.831 -0.011,0.004 -1.154,0.972 -3.761,2.318 -0.136,-0.069 -0.092,-0.139 -0.113,-0.162 -0.069,-0.232 -0.091,-0.255 -0.068,-0.303 -0.039,-0.288 -0.031,-0.151 -0.005,-0.063 -0.04,-0.217 -0.018,-0.207 -0.004,-0.025 -0.022,-0.259 -0.024,-0.274 v -0.255 l -0.023,-0.28 -0.021,-0.253 v -0.023 -0.51 l -0.023,-0.279 v -0.279 -0.533 -0.533 -0.533 -0.28 l 0.023,-0.255 v -0.556 l 0.021,-0.256 v -0.277 -0.278 l 0.023,-0.278 v -0.257 l 0.023,-0.278 v -0.278 l 0.023,-0.278 0.022,-0.255 v -0.278 l 0.023,-0.279 v -0.279 l 0.022,-0.255 0.023,-0.278 v -0.278 l 0.025,-0.278 0.022,-0.279 0.023,-0.279 0.023,-0.255 v -0.279 l 0.044,-0.555 0.047,-0.556 0.022,-0.28 0.021,-0.278 v -0.278 l 0.026,-0.279 0.022,-0.254 0.023,-0.278 0.023,-0.278 0.022,-0.28 0.067,-0.834 0.024,-0.256 0.02,-0.007 0.002,-0.015 0.023,-0.28 0.024,-0.255 0.046,-0.602 0.013,-0.17 0.009,-0.108 0.023,-0.278 0.022,-0.28 0.023,-0.232 0.045,-0.393 0.022,-0.278 0.019,-0.133 0.006,-0.099 0.159,-0.255 0.012,-0.021 0.421,-0.675 0.866,-1.369 6.314,-2.204 v 0.279 l -0.022,0.278 v 0.533 0.533 0.535 0.532 l 0.022,0.279 v 0.256 0.531 0.281 l 0.026,0.254 v 0.534 0.277 l 0.021,0.256 v 0.277 l 0.023,0.256 v 0.535 l 0.023,0.255 v 0.277 l 0.023,0.256 v 0.255 l 0.023,0.279 v 0.254 l 0.022,0.278 0.022,0.255 v 0.257 l 0.023,0.278 0.023,0.255 v 0.255 l 0.025,0.278 0.022,0.255 v 0.255 l 0.022,0.255 h -0.001 l 0.001,0.022 0.045,0.511 0.024,0.279 v 0.255 l 0.044,0.511 0.023,0.278 0.022,0.255 0.025,0.255 0.023,0.255 0.023,0.278 0.045,0.51 0.023,0.257 0.02,0.25 0.024,0.282 0.045,0.511 0.025,0.278 0.021,0.233 0.002,-10e-4 0.023,0.151 0.023,0.127 0.022,0.255 0.022,0.279 0.023,0.231 0.031,0.22 0.014,0.083 0.022,0.208 0.025,0.325 0.007,0.076 0.016,0.11 0.011,0.116 0.011,0.07 z"></path></g></g></g></g><g id="g108"><g id="g110"><g id="g116"><g id="g118"><path id="path128" style="fill:url(#linearGradient126);fill-rule:evenodd;stroke:none" d="m 112.567,127.102 -0.046,0.233 -0.045,0.255 -0.07,0.255 -0.021,0.092 -0.046,0.117 -0.024,0.115 -0.044,0.094 -0.022,0.116 -0.046,0.093 h -0.001 l -0.022,0.115 -0.048,0.092 -0.066,0.209 -0.046,0.117 -0.04,0.08 -0.004,0.012 -0.071,0.209 -0.046,0.094 -0.089,0.207 -0.036,0.074 -0.01,0.02 -0.085,0.172 -0.009,0.015 -0.088,0.206 -0.035,0.07 -0.011,0.024 -0.079,0.161 -0.058,0.117 -0.091,0.184 -0.048,0.097 -0.09,0.206 -0.112,0.183 -0.029,0.058 -0.046,0.094 -0.062,0.129 -0.11,0.175 -0.051,0.103 -0.035,0.05 -0.011,0.02 -0.11,0.178 -0.039,0.079 -0.055,0.114 -0.113,0.186 -0.004,0.004 -0.044,0.088 -0.014,-0.012 0.014,0.012 h -0.022 l -0.434,-0.255 -0.738,-0.468 -0.766,-0.46 0.036,-0.106 -0.012,-0.011 0.058,-0.134 0.055,-0.167 0.069,-0.209 0.032,-0.074 0.013,-0.041 0.068,-0.21 0.06,-0.136 0.055,-0.164 0.029,-0.066 0.016,-0.051 0.068,-0.209 0.068,-0.209 0.064,-0.142 0.051,-0.159 0.031,-0.072 0.015,-0.043 0.067,-0.21 0.07,-0.208 0.046,-0.096 0.067,-0.204 0.057,-0.131 0.058,-0.173 0.067,-0.207 0.03,-0.067 0.016,-0.05 0.069,-0.209 0.062,-0.144 0.052,-0.158 0.029,-0.066 0.016,-0.05 0.069,-0.207 0.068,-0.209 0.054,-0.125 0.037,-0.13 0.115,0.023 0.411,0.069 0.228,0.054 0.341,0.062 0.013,0.013 1.422,0.266 z"></path></g></g></g></g><g transform="translate(108.4629,130.7208)" id="g130"><path id="path132" style="fill:#fff6b1;fill-opacity:1;fill-rule:evenodd;stroke:none" d="M 0,0 2.097,1.624 1.916,1.67 1.437,1.786 0.684,1.994 -0.319,2.227 -1.526,2.504 -2.872,2.83 -4.354,3.154 -5.903,3.479 -7.5,3.781 l -1.596,0.278 -1.549,0.233 -1.484,0.161 -0.684,0.07 -0.659,0.046 -0.617,0.023 h -0.57 L -15.183,4.569 -15.662,4.523 -16.072,4.43 -16.415,4.337 -18.284,3.084 -1.892,0.51 -1.596,0.441 -0.935,0.301 -0.592,0.232 -0.296,0.138 -0.159,0.092 -0.068,0.069 Z"></path></g><g id="g134"><g id="g136"><g id="g142"><g id="g144"><path id="path154" style="fill:url(#linearGradient152);fill-rule:evenodd;stroke:none" d="m 129.642,111.87 -0.022,0.272 -0.032,0.196 -0.014,0.15 -0.04,0.27 -0.006,0.057 -0.015,0.085 -0.03,0.216 -0.046,0.255 -0.01,0.139 -0.011,0.161 -0.047,0.256 -0.045,0.303 -0.024,0.254 -0.089,0.557 -0.047,0.278 -0.046,0.254 -0.023,0.304 -0.045,0.255 -0.045,0.278 -0.046,0.278 -0.046,0.278 -0.045,0.255 -0.046,0.279 -0.046,0.279 -0.045,0.255 -0.045,0.278 -0.046,0.255 -0.092,0.557 -0.044,0.254 -0.048,0.278 -0.067,0.255 -0.045,0.28 -0.046,0.255 -0.069,0.255 -0.045,0.278 -0.068,0.255 -0.046,0.255 -0.069,0.255 -0.068,0.255 -0.045,0.278 -0.069,0.232 -0.068,0.256 -0.069,0.256 -0.068,0.231 -0.046,0.102 -0.046,0.153 -0.09,0.208 -0.116,0.303 -0.136,0.232 -0.022,-0.071 -0.092,-0.161 -0.073,-0.12 -0.155,-0.229 -0.25,-0.324 -0.158,-0.163 -0.161,-0.161 -0.183,-0.163 -0.205,-0.14 -0.228,-0.138 -0.227,-0.094 -0.209,-0.076 -0.111,-0.016 -0.205,-0.046 -0.318,0.092 -1.072,0.301 -0.366,0.096 -0.158,0.043 -1.073,0.302 -0.635,0.165 -0.983,0.276 -0.357,0.092 -0.167,0.048 -1.072,0.301 -0.699,0.181 -0.919,0.26 -0.41,0.106 -0.115,0.032 -1.072,0.303 -0.712,0.184 -0.906,0.255 -0.366,0.095 -0.158,0.045 -1.072,0.301 -5.222,1.416 0.868,-4.501 0.409,-0.416 0.14,-0.136 0.18,-0.19 0.499,-0.489 0.48,-0.508 0.662,-0.65 0.661,-0.672 0.165,-0.162 0.155,-0.163 0.66,-0.65 0.661,-0.671 0.012,-0.011 0.309,-0.315 0.661,-0.673 0.166,-0.163 0.152,-0.161 0.662,-0.673 0.615,-0.603 0.365,-0.371 0.661,-0.673 0.022,-0.022 0.297,-0.302 0.661,-0.673 0.661,-0.65 0.5,-0.507 0.48,-0.491 0.045,-0.042 0.276,-0.281 0.661,-0.673 0.661,-0.65 0.659,-0.671 0.005,-0.005 0.316,-0.321 0.662,-0.673 0.16,-0.158 0.158,-0.166 0.516,-0.508 0.464,-0.489 0.661,-0.649 0.661,-0.674 0.013,0.011 1.605,-1.634 2.297,5.097 0.007,0.006 0.934,2.065 0.115,0.255 z"></path></g></g></g></g><g id="g156"><g id="g158"><g id="g164"><g id="g166"><path id="path174" style="fill:url(#linearGradient172);fill-rule:evenodd;stroke:none" d="m 103.928,108.315 h -0.025 l -0.341,0.395 -1.002,1.135 -0.506,0.561 -1,1.132 -0.006,-0.005 -0.495,0.563 -0.502,0.555 0.001,0.001 -1.004,1.137 -0.547,0.606 -0.957,1.087 -0.498,0.551 -0.004,0.005 -3.214,3.618 -0.048,-0.184 -0.134,-0.464 -0.207,-0.742 -0.25,-0.975 -0.297,-1.207 -0.319,-1.391 -0.319,-1.531 -0.085,-0.434 -0.007,-0.007 -0.114,-0.579 -0.114,-0.579 -0.09,-0.604 -0.115,-0.604 -0.09,-0.579 -0.069,-0.579 -0.091,-0.581 -0.07,-0.556 -0.067,-0.581 -0.045,-0.533 -0.07,-0.556 -0.045,-0.556 -0.022,-0.536 -0.022,-0.532 -0.024,-0.51 -0.022,-0.533 v -0.999 -0.51 l 0.022,-0.487 0.024,-0.464 0.022,-0.233 v -0.045 l 0.022,-0.232 0.16,-0.834 0.319,-1.741 0.155,-0.832 0.005,-0.026 0.319,-1.739 0.319,-1.74 0.111,-0.597 0.048,-0.261 0.321,-1.74 0.121,-0.654 0.038,-0.203 0.319,-1.741 0.183,-0.995 0.274,-1.601 0.317,-1.741 0.178,-0.949 0.301,-1.649 0.321,-1.74 0.12,-0.647 0.038,-0.21 0.32,-1.74 0.109,-0.589 0.049,-0.269 0.32,-1.74 0.319,-1.74 0.132,-0.707 0.027,-0.152 0.32,-1.739 0.18,-0.969 0.299,-1.629 0.281,-1.53 0.563,-3.108 0.089,-0.023 0.229,0.046 0.16,0.092 0.183,0.14 0.205,0.186 0.251,0.278 0.25,0.395 0.273,0.462 0.296,0.604 0.298,0.742 0.296,0.882 0.319,1.043 0.319,1.23 0.03,0.125 0.016,0.015 0.137,0.578 0.137,0.605 0.113,0.625 0.037,0.178 0.1,0.425 0.115,0.627 0.113,0.649 0.092,0.557 0.09,0.58 0.051,0.319 0.017,0.098 0.009,0.069 0.015,0.094 0.091,0.625 0.067,0.419 0.046,0.695 0.013,0.193 0.011,0.131 0.011,0.183 0.035,0.398 0.045,0.58 0.046,0.65 0.019,0.458 0.002,0.028 0.013,0.151 0.033,0.383 0.016,0.374 0.008,0.181 0.046,0.535 0.045,0.556 0.022,0.534 0.046,0.533 0.022,0.534 0.025,0.298 0.023,0.235 0.023,0.534 0.045,0.533 0.011,0.279 0.011,0.255 0.046,0.557 0.022,0.509 0.023,0.556 0.045,0.512 0.001,0.024 0.009,0.203 0.014,0.306 0.023,0.279 0.024,0.254 0.022,0.534 0.021,0.534 0.024,0.533 0.045,0.533 0.045,1.067 0.024,0.512 0.045,0.533 0.024,0.545 0.022,0.498 0.021,0.533 0.024,0.534 0.023,0.51 0.023,0.533 0.022,0.534 0.025,0.51 v 0.511 l 0.017,0.427 0.05,1.126 v 0.023 0.51 l 0.023,0.511 v 1.021 l 0.023,0.533 v 0.488 0.997 0.372 0.161 l -0.023,0.464 v 0.418 l 0.045,1.624 0.034,1.033 0.011,0.01 z"></path></g></g></g></g><g id="g176"><g id="g178"><g id="g184"><g id="g186"><path id="path194" style="fill:url(#linearGradient192);fill-rule:evenodd;stroke:none" d="m 80.034,109.336 -0.011,0.219 -0.012,0.407 -0.023,0.464 -0.009,0.196 -0.014,0.36 -0.003,-0.002 0.003,0.002 -0.022,0.487 -0.008,0.185 -0.015,0.371 -0.022,0.487 -0.016,0.164 -0.029,0.371 -0.023,0.487 -0.003,0.081 -0.02,0.452 h -0.001 l -0.023,0.487 -0.046,0.533 -0.023,0.51 -0.01,0.235 -0.012,0.277 -0.046,0.51 -0.022,0.511 -0.046,0.509 -0.023,0.51 v 0.008 l -0.023,0.502 -0.043,0.454 -0.006,0.105 -0.11,1.97 -0.137,2.04 -0.059,0.864 -0.009,0.135 -0.137,2.04 -0.113,1.856 -2.395,-0.859 -0.733,-0.268 -1.32,-0.474 -4.05,-1.479 -2.128,-0.77 -0.009,-0.009 -1.7,-0.618 -0.091,-0.394 -0.091,-0.534 -0.02,-0.135 -0.002,-0.003 -0.018,-0.139 -0.051,-0.348 -0.092,-0.72 -0.031,-0.417 -0.015,-0.117 -0.045,-0.625 -0.067,-0.626 -0.047,-0.58 -0.023,-0.581 -0.046,-0.51 -0.011,-0.324 -0.034,-0.395 -0.018,-0.363 -0.004,-0.032 v -0.023 -0.301 l -0.023,-0.115 -0.044,-0.487 -0.048,-0.487 -0.046,-0.465 -0.045,-0.486 -0.044,-0.58 -0.048,-0.581 -0.045,-0.58 -0.046,-0.579 -0.044,-0.556 -0.047,-0.581 -0.021,-0.556 -0.047,-0.581 -0.045,-1.113 -0.024,-0.557 -0.044,-1.112 v -0.535 l -0.024,-0.556 v -0.533 l -0.022,-0.557 v -0.534 -1.067 l 0.022,-0.532 v -0.535 -0.533 l 0.024,-0.51 0.022,-0.534 0.022,-0.509 0.024,-0.535 0.036,-0.838 0.009,-0.183 v -0.026 l 0.022,-0.484 0.002,0.002 v -0.002 l 0.044,-0.509 0.023,-0.487 0.091,-1.02 0.046,-0.489 0.047,-0.487 0.045,-0.487 0.067,-0.51 0.046,-0.464 0.069,-0.487 0.046,-0.487 0.067,-0.487 0.069,-0.464 0.07,-0.487 0.089,-0.464 0.069,-0.487 0.069,-0.465 0.182,-0.927 0.068,-0.44 0.092,-0.464 0.091,-0.464 0.114,-0.44 0.089,-0.464 0.094,-0.441 0.113,-0.442 0.115,-0.441 0.09,-0.441 0.114,-0.438 0.113,-0.418 0.139,-0.441 0.113,-0.441 0.114,-0.418 0.136,-0.417 0.137,-0.418 0.139,-0.44 0.135,-0.396 0.137,-0.415 0.136,-0.418 0.138,-0.419 0.16,-0.394 0.135,-0.393 0.161,-0.419 0.159,-0.394 0.159,-0.394 0.16,-0.371 0.182,-0.394 0.161,-0.394 0.181,-0.395 0.182,-0.371 0.183,-0.372 0.184,-0.393 0.183,-0.349 0.202,-0.394 0.206,-0.348 0.183,-0.347 v -0.001 l 0.093,-0.157 0.113,-0.213 0.205,-0.324 0.137,-0.232 0.502,-0.79 0.432,-0.648 0.409,-0.536 0.32,-0.416 0.229,-0.303 0.205,-0.208 0.886,5.888 0.004,0.004 0.363,2.458 0.366,2.482 0.364,2.459 0.328,2.237 0.044,0.289 0.381,2.438 0.364,2.458 0.02,0.134 0.162,1.095 0.366,2.483 0.108,0.739 0.073,0.489 0.359,2.441 0.189,1.271 0.091,0.614 0.09,0.616 0.388,2.481 0.158,1.065 0.024,0.163 0.367,2.483 0.014,0.105 0.167,1.125 0.023,0.231 0.025,0.093 v 0.117 0.393 0.278 z"></path></g></g></g></g><g id="g196"><g id="g198"><g id="g204"><g id="g206"><path id="path214" style="fill:url(#linearGradient212);fill-rule:evenodd;stroke:none" d="m 121.572,97.922 v 0.511 l -0.023,0.558 -0.022,0.506 -0.024,0.537 -0.022,0.51 -0.045,0.509 -0.022,0.513 -0.046,0.533 h -0.002 l -0.045,0.486 -0.046,0.51 -0.044,0.488 -0.045,0.509 -0.071,0.488 -0.044,0.51 -0.137,0.974 -0.069,0.488 -0.136,0.975 -0.07,0.486 -0.066,0.465 -0.092,0.487 -0.069,0.464 -0.091,0.464 -0.091,0.462 -0.069,0.464 -0.091,0.464 -0.09,0.463 -0.115,0.465 -0.09,0.464 -0.092,0.464 -0.113,0.464 -0.092,0.441 -0.114,0.464 -0.092,0.441 -0.114,0.441 -0.114,0.439 -0.112,0.464 -0.116,0.441 -0.113,0.441 -0.114,0.441 -0.131,0.423 -0.074,0.319 -0.115,0.395 v 0.023 l -1.025,0.393 -1.688,0.673 -1.709,0.673 -1.711,0.673 -1.709,0.673 -8.709,3.433 v -9.256 l 0.456,-1.484 0.266,-0.837 0.006,-0.022 0.525,-1.716 0.356,-1.098 0.443,-1.452 0.273,-0.86 0.524,-1.692 0.282,-0.885 0.516,-1.69 0.281,-0.881 0.518,-1.671 0.298,-0.935 0.5,-1.638 0.208,-0.648 0.066,-0.212 0.523,-1.692 0.286,-0.895 0.512,-1.68 0.215,-0.662 0.059,-0.196 0.524,-1.694 0.262,-0.821 0.011,-0.036 0.526,-1.717 0.336,-1.039 0.461,-1.512 0.25,-0.783 0.023,-0.077 0.526,-1.716 0.341,-1.058 0.456,-1.494 0.26,-0.816 0.013,-0.04 0.525,-1.693 0.274,-0.86 0.523,-1.716 0.25,-0.782 0.024,-0.077 0.526,-1.693 0.284,-0.893 0.535,-1.728 0.046,0.071 0.114,0.185 0.183,0.303 0.251,0.438 0.296,0.558 0.342,0.696 0.364,0.812 0.162,0.397 0.135,0.298 0.365,0.905 0.071,0.197 0.246,0.637 0.298,0.836 0.087,0.283 0.164,0.483 0.251,0.787 0.128,0.458 0.077,0.261 0.206,0.767 0.205,0.765 0.158,0.65 0.182,0.742 0.138,0.626 0.16,0.718 0.113,0.605 0.113,0.649 0.115,0.648 0.114,0.674 0.093,0.603 0.091,0.649 0.066,0.58 0.071,0.603 0.067,0.604 0.068,0.625 0.047,0.581 0.046,0.579 0.044,0.58 0.023,0.58 0.045,0.581 0.046,1.112 v 0.557 l 0.025,0.557 v 0.579 1.09 0.51 z"></path></g></g></g></g><g id="g216"><g id="g218"><g id="g224"><g id="g226"><path id="path234" style="fill:url(#linearGradient232);fill-rule:evenodd;stroke:none" d="m 147.049,112.166 -1.734,1.112 -0.003,-0.004 -0.885,0.561 -0.871,0.552 0.004,0.004 -1.754,1.114 -0.098,-0.086 -0.87,0.552 0.101,0.09 -1.653,1.048 -0.968,0.622 -1.756,1.114 -1.756,1.137 -0.439,0.277 -0.426,0.279 -0.008,-0.007 -0.746,0.471 -0.022,-0.07 -0.02,-0.051 -0.043,0.027 -0.046,-0.139 -0.138,-0.348 -0.203,-0.533 -0.298,-0.719 0.06,0.053 -0.1,-0.264 -0.055,-0.136 -0.182,-0.464 -0.205,-0.486 -0.043,-0.113 -0.253,-0.584 -0.312,-0.772 -0.077,-0.179 -0.084,-0.213 -0.166,-0.391 -0.451,-1.053 -0.028,-0.059 -0.228,-0.558 -0.251,-0.556 -0.228,-0.556 -0.252,-0.558 -0.272,-0.602 -0.274,-0.604 -0.274,-0.58 -0.251,-0.578 -0.272,-0.558 -0.251,-0.51 -0.253,-0.51 -0.386,-0.743 -0.366,-0.649 -0.341,-0.556 -0.297,-0.395 -0.25,-1.785 v 0 l -0.004,-0.019 -0.084,-0.075 -0.455,-3.086 0.083,0.075 -0.234,-1.5 -0.014,-0.012 -0.198,-1.34 -0.029,-0.191 0.002,0.002 -0.23,-1.556 -0.228,-1.53 v -10e-4 l -0.017,-0.113 -0.211,-1.419 0.002,0.002 -0.231,-1.555 -0.455,-3.061 -0.479,-3.085 0.014,0.011 -0.242,-1.542 -0.213,-1.541 -0.016,-0.013 v -0.092 l -0.841,-1.994 -0.192,-0.457 -0.698,-1.655 -1.778,-4.244 -1.779,-4.245 -1.779,-4.245 -1.777,-4.244 -0.25,-0.626 0.135,0.045 0.314,0.132 0.463,0.169 0.17,0.072 0.058,0.022 0.189,0.083 0.242,0.103 0.134,0.063 0.278,0.122 0.775,0.372 0.565,0.287 0.073,0.037 0.031,0.016 0.196,0.101 0.982,0.533 0.522,0.305 0.64,0.367 0.052,0.046 1.02,0.65 1.231,0.811 0.638,0.464 0.66,0.464 0.685,0.51 0.684,0.534 0.683,0.558 0.707,0.602 0.731,0.627 0.729,0.65 0.73,0.695 0.752,0.718 0.751,0.743 0.754,0.788 0.774,0.812 0.776,0.859 0.752,0.881 0.776,0.928 0.774,0.952 0.775,0.997 0.752,1.042 0.445,0.613 0.535,0.733 0.639,0.952 0.639,0.997 0.66,0.997 0.389,0.65 0.386,0.625 0.344,0.597 0.09,0.147 0.456,0.811 0.296,0.51 0.298,0.532 0.273,0.534 0.296,0.558 0.05,0.099 0.177,0.318 0.184,0.374 0.159,0.297 0.122,0.249 0.22,0.425 0.227,0.464 0.069,0.139 0.183,0.417 -0.029,-0.025 0.073,0.165 0.366,0.835 0.456,1.136 0.137,0.395 0.158,0.441 0.184,0.44 0.159,0.488 0.183,0.486 0.034,0.108 0.011,0.031 0.136,0.441 0.002,0.007 0.158,0.48 0.128,0.389 0.01,0.029 0.004,0.013 0.041,0.127 0.058,0.214 0.032,0.109 0.161,0.488 0.045,0.162 0.092,0.279 0.069,0.267 0.089,0.289 0.065,0.255 0.028,0.094 0.112,0.464 0.139,0.464 0.112,0.461 0.097,0.43 0.086,0.361 0.052,0.223 0.154,0.611 0.068,0.36 0.114,0.475 0.088,0.518 0.07,0.34 -0.016,-0.014 0.155,0.756 0.136,0.836 0.091,0.742 0.116,0.742 0.062,0.698 0.005,0.05 0.09,0.759 0.046,0.696 0.047,0.697 0.002,0.074 0.02,0.436 0.023,0.488 v 0.974 z"></path></g></g></g></g><g id="g236"><g id="g238"><g id="g244"><g id="g246"><path id="path254" style="fill:url(#linearGradient252);fill-rule:evenodd;stroke:none" d="m 147.541,111.91 v -0.14 l -0.025,-0.416 -0.046,-0.697 -0.067,-0.904 -0.115,-1.137 -0.159,-1.369 -0.25,-1.53 -0.274,-1.582 -0.023,-0.111 -0.091,-0.464 -0.091,-0.441 -0.092,-0.441 -0.09,-0.441 -0.115,-0.44 -0.091,-0.417 -0.114,-0.441 -0.091,-0.442 -0.115,-0.441 -0.112,-0.416 -0.114,-0.441 -0.115,-0.417 -0.138,-0.418 -0.112,-0.442 -0.139,-0.416 -0.113,-0.417 -0.137,-0.419 -0.135,-0.417 -0.138,-0.416 -0.137,-0.418 -0.136,-0.418 -0.16,-0.395 -0.137,-0.416 -0.16,-0.418 -0.138,-0.419 -0.157,-0.392 -0.161,-0.395 -0.16,-0.418 -0.159,-0.393 -0.159,-0.396 -0.183,-0.417 -0.16,-0.395 -0.183,-0.394 -0.182,-0.394 -0.158,-0.394 -0.365,-0.789 -0.183,-0.371 -0.205,-0.394 -0.182,-0.395 -0.184,-0.37 -0.205,-0.395 -0.205,-0.371 -0.205,-0.395 -0.182,-0.372 -0.227,-0.37 -0.205,-0.371 -0.206,-0.393 -0.206,-0.373 -0.227,-0.371 -0.205,-0.371 -0.229,-0.348 -0.228,-0.371 -0.228,-0.372 -0.228,-0.37 -0.228,-0.349 -0.25,-0.37 -0.228,-0.349 -0.25,-0.37 -0.252,-0.349 -0.227,-0.346 -0.251,-0.373 -0.25,-0.346 -0.251,-0.349 -0.275,-0.347 -0.251,-0.349 -0.273,-0.348 -0.25,-0.324 -0.274,-0.349 -0.273,-0.347 -0.274,-0.325 -0.274,-0.347 -0.297,-0.325 -0.273,-0.349 -0.297,-0.323 -0.274,-0.327 -0.295,-0.323 -0.296,-0.348 -0.298,-0.326 -0.296,-0.323 -0.318,-0.301 -0.298,-0.327 -0.318,-0.323 -0.319,-0.327 0.016,-0.007 -0.016,0.007 -0.298,-0.301 -0.317,-0.324 -0.342,-0.301 -0.321,-0.303 -0.318,-0.324 -0.343,-0.301 -0.341,-0.302 -0.32,-0.302 -0.341,-0.301 -0.365,-0.301 -0.341,-0.303 -0.343,-0.3 -0.364,-0.278 -0.365,-0.302 -0.684,-0.544 -0.046,-0.037 v 0 l -0.319,-0.255 -1.094,-0.81 -1.118,-0.813 -1.163,-0.788 -1.184,-0.766 -1.233,-0.765 -1.252,-0.742 -1.301,-0.719 0.183,0.069 0.547,0.279 0.889,0.441 1.163,0.626 0.683,0.394 0.754,0.463 0.797,0.487 0.845,0.556 0.889,0.604 0.934,0.674 0.98,0.718 0.268,0.211 0.005,-0.002 0.365,0.278 0.364,0.279 0.366,0.3 0.365,0.278 0.341,0.304 0.367,0.277 0.341,0.302 0.365,0.3 0.341,0.304 0.343,0.3 0.318,0.301 0.343,0.302 0.342,0.302 0.317,0.324 0.321,0.301 0.318,0.303 0.343,0.324 0.318,0.324 0.296,0.304 0.321,0.323 0.295,0.325 0.32,0.325 0.296,0.325 0.297,0.324 0.296,0.325 0.297,0.325 0.296,0.323 0.295,0.326 0.274,0.348 0.298,0.325 0.273,0.325 0.274,0.349 0.272,0.323 0.274,0.348 0.275,0.349 0.273,0.347 0.251,0.348 0.274,0.324 0.25,0.348 0.25,0.349 0.25,0.371 0.253,0.348 0.25,0.347 0.251,0.348 0.251,0.371 0.227,0.348 0.25,0.37 0.229,0.349 0.228,0.371 0.229,0.348 0.227,0.371 0.228,0.371 0.228,0.373 0.229,0.37 0.205,0.372 0.205,0.37 0.228,0.371 0.205,0.371 0.204,0.372 0.207,0.394 0.204,0.37 0.205,0.373 0.184,0.393 0.205,0.394 0.181,0.372 0.182,0.394 0.205,0.395 0.183,0.37 0.182,0.395 0.002,0.002 0.182,0.393 0.159,0.393 0.182,0.395 0.16,0.394 0.183,0.393 0.158,0.419 0.161,0.394 0.16,0.394 0.157,0.418 0.161,0.394 0.161,0.418 0.158,0.393 0.138,0.418 0.158,0.418 0.097,0.294 0.04,0.1 0.137,0.418 0.137,0.417 0.137,0.419 0.137,0.416 0.136,0.417 0.114,0.419 0.137,0.441 0.115,0.416 0.136,0.418 0.113,0.441 0.114,0.418 0.115,0.441 0.113,0.417 0.115,0.44 0.09,0.441 0.115,0.417 0.501,2.32 0.228,1.184 0.206,1.182 0.182,1.23 0.183,1.229 0.158,1.251 0.139,1.276 z"></path></g></g></g></g><g id="g256"><g id="g258"><g id="g264"><g id="g266"><path id="path274" style="fill:url(#linearGradient272);stroke:none" d="m 118.381,103.327 h 0.001 l -0.002,0.001 z"></path></g></g></g></g><g id="g276"><g id="g278"><g id="g284"><g id="g286"><path id="path294" style="fill:url(#linearGradient292);fill-rule:evenodd;stroke:none" d="m 126.838,99.988 v 0.487 l -0.067,1.461 -0.001,0.002 -0.023,0.485 -0.046,0.51 -0.043,0.487 -0.048,0.512 -0.091,1.02 -0.01,0.083 -0.012,0.126 -0.091,0.765 -0.07,0.51 -0.007,0.004 -0.037,0.251 -0.138,0.742 v 0.07 l -0.022,0.209 -0.069,0.348 -0.068,0.44 -0.046,0.371 -0.068,0.441 -0.068,0.464 -0.068,0.51 -0.047,0.279 v -0.001 l -0.076,0.521 -0.037,0.315 -0.09,0.602 -0.052,0.328 -0.154,1.157 -0.206,1.577 -0.205,1.578 -0.183,1.507 -0.136,1.369 -0.092,1.159 -0.045,0.906 -6.018,-2.807 0.023,-0.094 0.045,-0.232 0.091,-0.393 0.115,-0.511 0.135,-0.672 0.139,-0.79 0.114,-0.568 0.023,-0.151 0.099,-0.54 0.104,-0.666 0.018,-0.009 0.051,-0.315 0.069,-0.557 0.09,-0.58 0.092,-0.625 0.068,-0.464 0.07,-0.464 0.067,-0.488 0.068,-0.509 0.011,-0.123 -0.011,0.006 0.027,-0.181 0.018,-0.214 0.061,-0.466 0.009,-0.09 0.035,-0.243 0.033,-0.268 0.044,-0.556 0.047,-0.464 0.01,-0.073 0.035,-0.39 0.036,-0.282 0.01,-0.205 0.046,-0.51 0.04,-0.433 0.005,-0.102 0.045,-0.464 0.046,-0.51 0.024,-0.534 0.005,-0.057 0.018,-0.384 0.044,-0.486 0.046,-1.02 0.045,-0.928 0.022,-0.487 v -0.465 -0.045 l 0.023,-0.464 v -0.464 l 0.025,-0.488 V 98.272 96.37 95.929 l -0.025,-0.464 v -0.464 l -0.045,-0.928 V 94.05 93.609 l -0.021,-0.465 -0.005,-0.073 -0.019,-0.39 -0.046,-0.44 -0.044,-0.927 -0.047,-0.441 -0.022,-0.465 -0.046,-0.441 -0.045,-0.463 -0.023,-0.441 -0.046,-0.441 -0.069,-0.465 -0.045,-0.439 -0.046,-0.441 -0.114,-0.881 -0.136,-0.883 -0.114,-0.856 -0.159,-0.86 -0.022,-0.14 -0.139,-0.716 -0.16,-0.859 -0.182,-0.837 -0.182,-0.856 -0.182,-0.837 -0.228,-0.811 -0.205,-0.835 -0.252,-0.812 -0.227,-0.811 -0.273,-0.789 -0.251,-0.789 -0.297,-0.787 -0.274,-0.79 -0.318,-0.766 -0.321,-0.765 -0.319,-0.765 -0.21,-0.459 -0.099,-0.217 h -0.001 l -0.054,-0.136 -0.129,-0.303 -0.236,-0.509 -0.29,-0.654 -0.046,-0.097 -0.324,-0.641 -0.153,-0.289 -0.304,-0.545 -0.342,-0.581 -0.375,-0.595 -0.217,-0.333 -0.06,-0.087 -0.282,-0.399 -0.042,-0.052 -0.232,-0.273 -0.09,-0.116 0.318,0.463 0.296,0.464 0.297,0.487 0.296,0.487 0.411,0.697 0.41,0.718 0.387,0.743 0.365,0.743 0.366,0.742 0.03,0.066 0.1,0.217 0.189,0.459 0.178,0.485 0.095,0.234 0.23,0.667 0.042,0.121 0.274,0.813 0.252,0.789 0.228,0.834 0.228,0.813 0.205,0.834 0.204,0.882 0.161,0.811 0.182,0.836 0.159,0.881 0.137,0.858 0.138,0.882 0.082,0.656 0.031,0.201 0.044,0.441 0.07,0.464 0.137,1.323 0.022,0.464 0.047,0.441 0.045,0.462 0.023,0.441 0.024,0.464 0.043,0.464 0.023,0.487 v 0.417 l 0.023,0.488 0.023,0.441 v 0.023 l 0.025,0.487 v 0.44 0.929 l 0.021,0.464 v 0.022 0.464 l -0.021,0.465 v 0.951 0.022 l -0.002,0.001 -0.023,0.464 v 0.486 l -0.046,0.975 -0.023,0.487 -0.017,0.393 -0.026,0.557 -0.024,0.51 -0.023,0.488 -0.026,0.261 -0.019,0.202 -0.004,0.039 -0.02,0.448 -0.043,0.488 -0.002,0.045 v 0.002 l -0.137,1.461 -0.047,0.51 h 0.002 l -0.002,0.001 -0.044,0.51 -0.068,0.486 -0.045,0.511 -0.07,0.509 -0.003,0.002 v 0.001 l 0.002,-0.002 -0.045,0.51 -0.067,0.481 -0.069,0.516 -0.068,0.535 -0.069,0.486 -0.068,0.511 -0.067,0.533 -0.093,0.51 -0.068,0.51 -0.091,0.51 -0.091,0.535 v 10e-4 l -0.09,0.555 -0.016,0.096 -0.009,0.067 -0.022,0.183 -0.026,0.102 -0.043,0.27 h -0.045 l -0.16,-0.068 -0.228,-0.071 -0.319,-0.116 -0.387,-0.117 -0.049,-0.015 -0.568,-0.168 -0.129,-0.038 -0.213,-0.056 -0.545,-0.161 -0.616,-0.163 -0.639,-0.163 -0.707,-0.161 -0.706,-0.164 -0.38,-0.077 -0.214,-0.039 -0.659,-0.116 -0.662,-0.116 -0.684,-0.092 -0.904,-0.094 -0.692,-0.046 -0.242,-0.016 -0.169,-0.005 -0.661,-0.023 h -0.662 l -0.477,0.017 -0.343,0.028 -0.547,0.047 -0.548,0.069 h -0.044 l -0.023,-0.023 -0.046,-0.046 -0.024,-0.071 -0.014,-0.069 -0.053,-0.163 -0.028,-0.181 -0.018,-0.074 -0.018,-0.166 -0.026,-0.158 -0.011,-0.151 -0.037,-0.313 -0.013,-0.193 -0.01,-0.085 -0.016,-0.319 -0.028,-0.447 -0.023,-0.394 v -0.278 l -0.02,-0.499 -0.003,-0.059 -0.023,-0.463 -0.022,-0.463 v -0.121 l -0.022,-0.414 v -0.441 l -0.025,-0.462 v -0.118 -0.371 l -0.022,-0.487 v -0.464 l -0.023,-0.463 v -0.07 -0.393 l -0.023,-0.488 v -0.464 l -0.024,-0.463 v -0.048 -0.416 l -0.021,-0.487 v -0.464 l -0.022,-0.465 v -0.045 -0.419 l -0.024,-0.486 v -0.464 l -0.022,-0.464 V 94.7 94.258 l -0.023,-0.463 -0.024,-0.464 v -0.023 -0.442 l -0.022,-0.464 V 92.38 91.939 l -0.012,-0.246 -0.011,-0.218 -0.023,-0.464 v -0.024 -0.44 l -0.019,-0.406 -0.027,-0.545 -0.021,-0.44 v -0.022 -0.442 l -0.046,-0.928 -0.023,-0.463 -10e-4,-0.024 -0.023,-0.44 -0.09,-1.857 -0.024,-0.44 -0.044,-0.928 -0.045,-0.464 -0.025,-0.44 -0.024,-0.48 -0.022,-0.425 -0.044,-0.464 -0.024,-0.464 -0.044,-0.44 -0.023,-0.465 -0.047,-0.441 -0.045,-0.463 -0.024,-0.441 -0.043,-0.439 -0.043,-0.425 -0.004,-0.04 -0.044,-0.464 -0.048,-0.44 -0.046,-0.418 -0.067,-0.705 -0.022,-0.2 -0.069,-0.44 -0.046,-0.441 -0.016,-0.12 -0.052,-0.343 -0.045,-0.441 -0.067,-0.419 -0.07,-0.417 -0.137,-0.904 -0.16,-0.882 -0.159,-0.835 -0.056,-0.282 -0.127,-0.599 -0.051,-0.23 -0.153,-0.605 -0.172,-0.628 -0.034,-0.114 -0.09,-0.303 -0.185,-0.58 -0.097,-0.277 -0.061,-0.162 -0.115,-0.329 -0.228,-0.507 -0.25,-0.533 -0.259,-0.439 -0.13,-0.188 -0.158,-0.231 -0.023,0.185 -0.069,0.557 -0.085,0.638 -0.006,0.057 -0.006,0.041 -0.016,0.122 -0.161,1.16 -0.025,0.161 -0.088,0.581 -0.091,0.627 -0.136,1.02 -0.071,0.556 -0.09,0.557 -0.021,0.132 -0.046,0.354 -0.07,0.535 -0.076,0.452 -0.015,0.104 -0.033,0.244 -0.034,0.266 -0.015,0.085 -0.056,0.426 -0.066,0.373 -0.023,0.184 -0.068,0.488 -0.093,0.533 -0.068,0.533 -0.09,0.51 -0.07,0.51 -0.09,0.512 -0.09,0.532 -0.07,0.534 -0.091,0.51 -0.091,0.533 -0.068,0.511 -0.091,0.533 -0.092,0.511 -0.181,1.066 -0.092,0.511 -0.092,0.534 -0.091,0.532 -0.091,0.534 -0.032,0.146 -0.059,0.364 -0.115,0.558 -0.09,0.532 -0.051,0.238 -0.042,0.227 -0.083,0.426 -0.03,0.175 -0.038,0.172 -0.076,0.386 -0.063,0.311 -0.027,0.153 -0.071,0.313 -0.068,0.312 -0.112,0.536 -0.116,0.509 -0.113,0.511 -0.112,0.476 -0.047,0.242 -0.137,0.533 -0.183,0.719 -0.182,0.651 -0.183,0.602 -0.022,0.071 -0.045,0.209 -0.068,0.347 -0.077,0.366 -0.106,0.631 -0.029,0.168 -0.063,0.436 -0.076,0.582 -0.015,0.16 -0.012,0.088 -0.055,0.607 -0.017,0.152 -0.006,0.15 -0.04,0.443 -0.008,0.16 v 1.021 0.395 l 0.012,0.234 0.036,0.391 0.044,0.471 0.046,0.317 v 0.038 l 0.023,0.171 h -0.067 l -0.207,-0.023 H 93.6 l -0.48,-0.024 h -0.637 l -0.707,0.021 -0.093,0.003 -0.751,0.023 -0.633,0.034 -0.69,0.06 -0.156,0.015 -0.552,0.054 -1.321,0.163 -0.684,0.115 -0.73,0.116 -0.633,0.117 -0.825,0.184 -0.98,0.233 -0.979,0.254 -0.014,0.004 -0.672,0.198 -0.448,0.135 -0.595,0.203 -0.626,0.224 -0.748,0.28 -0.743,0.289 -0.033,0.014 -0.732,0.313 -0.635,0.289 -0.662,0.308 -0.181,0.087 -0.66,0.347 -0.662,0.348 -0.662,0.394 -0.582,0.347 -0.167,0.105 -0.596,0.384 -0.661,0.441 -0.274,0.195 -0.295,0.221 -0.525,0.395 -0.295,0.212 -0.025,0.02 -0.456,0.371 -0.257,0.199 -0.04,0.033 -0.371,0.313 -0.266,0.243 -0.191,0.166 -0.197,0.182 -0.524,0.487 -0.068,-0.161 -0.16,-0.465 v -10e-4 l -0.068,-0.161 -0.183,-0.58 -0.227,-0.766 -0.229,-0.88 -0.025,-0.105 -0.202,-0.8 -0.072,-0.343 -0.135,-0.562 -0.158,-0.834 -0.137,-0.883 -0.03,-0.209 -0.038,-0.231 -0.069,-0.441 -0.02,-0.19 -0.048,-0.297 -0.045,-0.419 -0.046,-0.438 -0.048,-0.441 -0.043,-0.464 -0.046,-0.441 -0.012,-0.242 -0.011,-0.223 -0.091,-1.855 V 96.462 94.583 94.56 l 0.023,-0.465 0.05,-1.084 0.018,-0.4 0.09,-0.973 0.048,-0.488 0.091,-1.019 0.066,-0.51 0.07,-0.512 0.091,-0.51 0.068,-0.533 0.092,-0.51 0.113,-0.533 0.093,-0.535 0.112,-0.534 0.116,-0.533 0.113,-0.532 0.138,-0.558 0.135,-0.556 0.16,-0.557 0.16,-0.557 0.158,-0.557 0.183,-0.579 0.183,-0.58 0.182,-0.58 0.205,-0.58 0.205,-0.603 0.227,-0.58 0.23,-0.625 0.252,-0.604 0.249,-0.625 0.274,-0.604 0.273,-0.628 0.296,-0.624 0.298,-0.65 0.174,-0.332 0.167,-0.342 0.159,-0.301 0.159,-0.324 0.366,-0.672 0.342,-0.651 0.387,-0.673 0.388,-0.671 0.388,-0.672 -0.07,0.091 -0.146,0.166 -0.355,0.461 -0.07,0.088 -0.386,0.514 -0.501,0.79 -0.208,0.334 -0.316,0.523 -0.182,0.299 -0.205,0.375 -0.16,0.299 -0.024,0.047 -0.22,0.433 -0.236,0.496 -0.34,0.719 -0.227,0.46 -0.09,0.203 -0.163,0.381 -0.038,0.094 -0.212,0.531 -0.32,0.79 -0.156,0.404 -0.209,0.594 -0.007,0.022 -0.016,0.047 -0.085,0.221 -0.13,0.348 -0.172,0.545 -0.094,0.265 -0.134,0.431 -0.159,0.532 -0.092,0.267 -0.091,0.313 -0.182,0.65 -0.137,0.51 -0.012,0.035 -0.125,0.475 -0.101,0.368 -0.036,0.167 -0.136,0.555 -0.136,0.533 -0.137,0.582 -0.117,0.556 -0.134,0.601 -0.094,0.488 -0.032,0.151 -0.057,0.335 -0.113,0.559 -0.047,0.232 -0.045,0.254 -0.055,0.325 -0.035,0.254 -0.094,0.511 -0.029,0.157 -0.061,0.377 -0.068,0.557 -0.039,0.206 -0.031,0.234 -0.075,0.426 -0.048,0.35 -0.035,0.267 -0.006,0.06 -0.039,0.427 -0.055,0.407 -0.015,0.151 -0.068,0.465 -0.044,0.532 -0.01,0.064 -0.037,0.401 -0.06,0.448 -0.009,0.084 -0.045,0.483 -0.045,0.515 -0.002,0.028 -0.021,0.436 -0.043,0.48 -0.004,0.053 -0.045,0.464 -0.022,0.51 -0.046,0.511 -0.023,0.487 -0.022,0.465 -0.022,0.486 -0.023,0.51 -0.025,0.464 -0.022,0.464 -0.023,0.51 v 0.442 0.046 l -0.023,0.464 v 0.928 0.023 l -0.023,0.51 v 1.879 0.904 l 0.023,0.464 v 0.023 0.44 l 0.023,0.487 v 0.464 l 0.023,0.464 v 0.464 l 0.025,0.464 0.018,0.402 0.004,0.062 0.023,0.464 0.022,0.486 v 0.419 l 0.022,0.463 0.045,0.465 0.024,0.464 0.022,0.441 0.023,0.464 0.025,0.462 0.044,0.441 0.023,0.464 0.044,0.464 0.023,0.441 0.046,0.441 0.004,0.088 0.042,0.399 0.024,0.441 0.045,0.44 0.045,0.44 0.045,0.442 0.023,0.463 0.046,0.441 0.007,0.071 0.062,0.393 0.043,0.575 0.047,0.307 0.045,0.44 0.048,0.465 0.006,0.067 0.061,0.558 -0.137,0.069 -0.341,0.163 -0.257,0.129 -0.199,0.103 -0.317,0.193 -0.413,0.271 -0.342,0.232 -0.17,0.127 -0.264,0.22 -0.285,0.243 -0.306,0.292 -0.321,0.347 -0.302,0.353 -0.035,0.046 -0.223,0.322 -0.083,0.138 -0.176,0.324 -0.115,0.255 -0.09,0.255 -0.094,0.255 -0.067,0.28 -0.068,-0.163 -0.182,-0.441 -0.196,-0.5 -0.056,-0.127 -0.119,-0.318 -0.268,-0.679 -0.078,-0.24 -0.128,-0.339 -0.266,-0.779 -0.03,-0.08 -0.049,-0.149 -0.247,-0.733 -0.067,-0.229 -0.207,-0.628 -0.151,-0.513 -0.076,-0.229 -0.253,-0.882 -0.227,-0.765 -0.144,-0.57 -0.083,-0.289 -0.133,-0.523 -0.071,-0.265 -0.068,-0.291 -0.138,-0.545 -0.064,-0.289 -0.141,-0.546 -0.182,-0.835 -0.183,-0.857 -0.159,-0.836 -0.16,-0.88 -0.16,-0.836 -0.136,-0.882 -0.161,-0.88 -0.036,-0.359 -0.078,-0.5 -0.069,-0.441 -0.044,-0.441 -0.067,-0.439 -0.048,-0.441 -0.045,-0.441 -0.046,-0.464 -0.09,-0.882 -0.046,-0.464 -0.023,-0.439 -0.047,-0.464 -0.022,-0.441 -0.023,-0.465 -0.044,-0.463 -0.023,-0.464 -0.025,-0.464 v -0.464 l -0.021,-0.465 v -0.463 l -0.024,-0.465 v -0.95 -0.929 l 0.024,-0.486 v -0.487 l 0.021,-0.464 0.024,-0.475 10e-4,-0.013 v -0.486 l 0.045,-0.487 0.045,-0.974 0.046,-0.51 0.046,-0.487 0.046,-0.51 0.045,-0.487 0.067,-0.51 0.046,-0.512 0.071,-0.51 0.102,-0.766 0.033,-0.254 0.068,-0.511 0.081,-0.455 0.01,-0.077 0.091,-0.511 0.092,-0.534 0.091,-0.534 0.115,-0.509 0.113,-0.533 0.115,-0.559 0.113,-0.533 0.137,-0.533 0.136,-0.556 0.138,-0.557 0.039,-0.137 0.096,-0.397 0.161,-0.533 0.16,-0.534 0.135,-0.533 0.141,-0.394 0.087,-0.279 0.04,-0.122 0.076,-0.249 0.162,-0.474 0.042,-0.13 0.158,-0.509 0.184,-0.488 0.068,-0.162 0.027,-0.07 0.042,-0.114 0.114,-0.304 0.16,-0.392 0.104,-0.236 0.123,-0.298 0.079,-0.189 0.127,-0.323 0.161,-0.364 0.158,-0.378 0.251,-0.556 0.274,-0.604 L 62,75.1 l 0.342,-0.719 0.093,-0.162 0.009,-0.021 0.104,-0.211 0.008,-0.014 0.129,-0.264 0.376,-0.744 0.201,-0.423 0.149,-0.315 0.346,-0.793 0.431,-0.997 0.362,-0.898 0.187,-0.516 0.251,-0.674 0.25,-0.694 0.233,-0.669 0.108,-0.33 0.048,-0.091 0.11,-0.228 0.117,-0.282 0.341,-0.719 0.434,-0.929 0.274,-0.533 0.271,-0.58 0.322,-0.626 0.341,-0.673 0.365,-0.696 0.211,-0.388 0.222,-0.425 0.154,-0.265 0.211,-0.383 0.238,-0.435 0.149,-0.284 0.41,-0.696 0.411,-0.719 0.435,-0.742 0.343,-0.542 0.135,-0.225 0.455,-0.742 0.182,-0.272 0.343,-0.538 0.202,-0.292 0.231,-0.359 0.501,-0.742 0.026,-0.036 0.111,-0.173 0.254,-0.34 0.384,-0.54 0.495,-0.663 0.008,-0.01 0.009,-0.011 0.286,-0.384 0.82,-1.043 0.844,-0.997 1.301,-1.392 0.866,-0.836 0.454,-0.393 0.434,-0.395 0.456,-0.349 3.92,-2.203 0.505,-0.184 0.5,-0.163 0.524,-0.14 0.501,-0.138 0.526,-0.117 0.524,-0.092 0.524,-0.069 0.523,-0.071 0.503,-0.046 1.049,-0.046 0.108,0.005 0.142,-0.005 0.706,0.023 h 0.092 l 0.366,0.031 0.226,0.015 0.393,0.038 0.085,0.008 0.024,0.003 0.205,0.02 0.684,0.094 0.441,0.086 0.335,0.052 0.343,0.085 0.272,0.055 0.684,0.162 0.524,0.162 0.502,0.14 0.26,0.092 0.286,0.094 0.571,0.209 0.268,0.108 0.143,0.053 0.2,0.083 0.324,0.126 0.223,0.102 0.256,0.107 0.501,0.232 0.131,0.068 0.257,0.118 0.456,0.233 0.453,0.253 0.413,0.21 0.822,0.487 0.82,0.534 0.729,0.509 0.752,0.533 0.684,0.558 0.707,0.556 0.639,0.579 0.638,0.581 0.428,0.436 0.005,0.005 0.434,0.439 0.409,0.442 0.159,0.162 0.228,0.278 0.139,0.117 0.167,0.194 0.083,0.083 0.183,0.218 0.379,0.415 0.145,0.156 0.401,0.465 0.283,0.323 0.478,0.558 0.502,0.625 0.294,0.363 0.276,0.333 0.16,0.207 0.41,0.513 0.2,0.274 0.256,0.329 0.547,0.719 0.456,0.626 0.478,0.672 0.479,0.696 0.479,0.673 0.135,0.206 0.345,0.49 0.433,0.673 0.456,0.696 0.34,0.555 0.091,0.141 0.456,0.72 0.433,0.718 0.411,0.696 0.013,0.022 0.421,0.697 0.388,0.719 0.409,0.719 0.388,0.719 0.388,0.742 0.314,0.622 0.052,0.097 0.351,0.716 0.378,0.768 0.364,0.765 0.343,0.742 0.34,0.766 0.321,0.743 0.318,0.765 0.318,0.765 0.298,0.766 0.296,0.79 0.295,0.787 0.274,0.788 0.276,0.789 0.25,0.813 0.25,0.787 0.228,0.813 0.228,0.811 0.228,0.835 0.206,0.812 0.205,0.835 0.046,0.214 0.135,0.621 0.099,0.459 0.016,0.075 0.113,0.509 0.093,0.511 0.038,0.23 0.029,0.118 0.022,0.186 0.024,0.093 0.022,0.278 0.045,0.44 0.034,0.429 0.018,0.188 0.04,0.312 0.023,0.37 0.046,0.418 0.018,0.356 0.027,0.316 h 0.001 l 0.004,0.051 0.02,0.204 0.022,0.488 0.016,0.401 0.005,0.108 0.004,0.058 0.042,0.523 0.024,0.417 0.021,0.441 v 0.441 l 0.046,0.928 v 0.045 0.441 l 0.01,0.21 0.014,0.278 v 0.486 1.902 0.929 0.023 z"></path></g></g></g></g><g id="g296"><g id="g298"><g id="g304"><g id="g306"><path id="path314" style="fill:url(#linearGradient312);fill-rule:evenodd;stroke:none" d="m 63.369,129.12 0.022,0.349 0.068,0.347 0.138,0.673 0.16,0.625 0.181,0.535 0.16,0.44 0.09,0.279 0.047,0.093 -0.32,-0.325 -0.296,-0.326 -0.273,-0.346 -0.227,-0.325 -0.183,-0.349 -0.184,-0.324 -0.135,-0.326 -0.115,-0.324 -0.16,-0.533 -0.09,-0.441 -0.045,-0.301 v -0.094 h 1.162 z"></path></g></g></g></g><g transform="translate(149.4097,113.0006)" id="g316"><path id="path318" style="fill:#fff6b1;fill-opacity:1;fill-rule:evenodd;stroke:none" d="m 0,0 -2.122,-1.183 -14.111,9.161 3.397,1.484 0.364,-0.232 0.981,-0.647 1.459,-0.952 1.778,-1.208 0.958,-0.671 0.98,-0.672 0.98,-0.72 0.982,-0.718 0.956,-0.743 0.89,-0.696 0.82,-0.696 0.752,-0.649 0.274,-0.21 L -0.298,0.394 -0.137,0.278 0.023,0.115 0.045,0.069 0.023,0.023 Z"></path></g><g transform="translate(124.4097,121.7198)" id="g320"><path id="path322" style="fill:#fff6b1;fill-opacity:1;fill-rule:evenodd;stroke:none" d="m 0,0 -6.269,-2.945 -0.182,0.069 -0.479,0.209 -0.729,0.301 -0.982,0.418 -1.139,0.487 -1.299,0.557 -1.391,0.58 -1.46,0.602 -1.481,0.604 -1.458,0.602 -1.393,0.535 -1.276,0.487 -1.139,0.416 -0.935,0.326 -0.389,0.115 -0.34,0.094 -0.251,0.046 -0.182,0.023 6.108,1.415 0.161,-0.069 0.411,-0.14 0.637,-0.254 0.844,-0.302 1.004,-0.395 1.163,-0.395 1.252,-0.464 1.345,-0.439 2.782,-0.928 1.413,-0.395 1.345,-0.395 0.639,-0.161 0.639,-0.14 0.592,-0.138 0.57,-0.118 0.524,-0.068 0.502,-0.069 0.455,-0.048 z"></path></g><g transform="translate(117.4219,110.3551)" id="g324"><path id="path326" style="fill:#fff6b1;fill-opacity:1;fill-rule:evenodd;stroke:none" d="m 0,0 -0.501,0.464 -1.368,1.231 -1.914,1.784 -2.235,2.088 -1.162,1.113 -1.14,1.091 -1.095,1.066 -1.003,0.998 -0.867,0.929 -0.752,0.788 -0.296,0.347 -0.25,0.326 -0.205,0.255 -0.138,0.231 -0.295,-0.07 -0.822,-0.116 -1.185,-0.208 -1.414,-0.209 -1.504,-0.232 -1.437,-0.186 -0.66,-0.069 -0.569,-0.069 -0.504,-0.023 -0.386,-0.025 -0.206,-0.184 -0.523,-0.512 -0.32,-0.347 -0.319,-0.372 -0.161,-0.184 -0.135,-0.209 -0.115,-0.209 -0.113,-0.186 10.1,-11.342 0.364,-0.024 1.004,-0.046 0.728,-0.024 h 0.819 l 0.913,0.024 0.982,0.023 1.048,0.093 1.116,0.116 0.547,0.07 0.571,0.093 0.569,0.091 0.549,0.118 0.57,0.138 0.569,0.14 0.547,0.162 0.547,0.162 0.526,0.209 0.524,0.208 0.5,0.233 z"></path></g><g transform="translate(78.918,128.1232)" id="g328"><path id="path330" style="fill:#fff6b1;fill-opacity:1;fill-rule:evenodd;stroke:none" d="m 0,0 -0.206,0.092 -0.57,0.232 -0.843,0.303 -1.071,0.347 -0.595,0.163 -0.636,0.138 -0.64,0.117 -0.661,0.115 -0.661,0.071 h -0.98 L -7.183,1.555 -7.502,1.53 -7.797,1.484 -16.872,0.14 l 0.045,-0.163 0.116,-0.441 0.09,-0.278 0.138,-0.349 0.182,-0.347 0.228,-0.395 0.25,-0.394 0.319,-0.394 0.366,-0.372 0.205,-0.184 0.455,-0.372 0.25,-0.163 0.275,-0.162 0.295,-0.139 0.297,-0.138 0.32,-0.117 0.341,-0.115 0.365,-0.095 0.48,0.164 1.3,0.464 1.845,0.673 2.143,0.765 2.189,0.788 2.005,0.743 1.529,0.557 z"></path></g><g transform="translate(127.1577,124.2496)" id="g332"><path id="path334" style="fill:#fff6b1;fill-opacity:1;fill-rule:evenodd;stroke:none" d="m 0,0 -18.466,4.592 h -0.069 l -0.205,-0.023 -0.251,-0.046 -0.296,-0.116 -0.16,-0.093 -0.137,-0.115 -0.135,-0.117 -0.115,-0.163 -0.113,-0.184 -0.094,-0.232 -0.044,-0.254 -0.023,-0.28 1.117,-0.325 1.095,-0.324 1.117,-0.325 1.093,-0.325 1.117,-0.348 1.095,-0.325 1.118,-0.324 1.095,-0.326 1.116,-0.324 1.094,-0.324 1.094,-0.326 1.118,-0.347 1.095,-0.325 1.117,-0.326 1.093,-0.322 1.117,-0.326 0.457,0.279 0.5,0.325 0.526,0.37 0.477,0.348 0.185,0.163 0.181,0.161 0.136,0.141 0.092,0.137 0.047,0.072 0.023,0.045 v 0.046 L 0.184,-0.14 0.159,-0.094 0.137,-0.069 0.069,-0.023 Z"></path></g><g transform="translate(105.6816,129.1891)" id="g336"><path id="path338" style="fill:#fff6b1;fill-opacity:1;fill-rule:evenodd;stroke:none" d="M 0,0 1.277,-1.947 0.844,-2.063 -0.364,-2.412 -2.166,-2.898 -4.4,-3.456 l -1.208,-0.3 -1.232,-0.28 -1.276,-0.255 -1.254,-0.232 -1.232,-0.207 -1.184,-0.163 -0.572,-0.069 -0.522,-0.048 -0.524,-0.046 -0.501,-0.023 -0.298,0.046 -0.82,0.163 -0.548,0.115 -0.616,0.163 -0.682,0.186 -0.685,0.209 -0.728,0.255 -0.709,0.278 -0.341,0.163 -0.343,0.161 -0.341,0.163 -0.319,0.186 -0.298,0.184 -0.546,0.418 -0.228,0.209 -0.228,0.233 -0.182,0.231 -0.162,0.255 -0.112,0.255 -0.116,0.069 -0.272,0.186 -0.159,0.14 -0.159,0.162 -0.161,0.185 -0.16,0.21 -0.113,0.231 -0.068,0.232 v 0.14 l -0.022,0.115 0.022,0.14 0.023,0.139 0.045,0.139 0.09,0.138 0.092,0.163 0.114,0.14 0.138,0.138 0.159,0.163 0.181,0.163 0.229,0.138 6.679,2.065 12.608,-2.389 z"></path></g><g transform="translate(93.667,100.4283)" id="g340"><path id="path342" style="fill:#fff6b1;fill-opacity:1;fill-rule:evenodd;stroke:none" d="m 0,0 -0.091,0.138 -0.252,0.464 -0.409,0.697 -0.524,0.927 -0.639,1.091 -0.708,1.253 -0.773,1.346 -0.798,1.389 -0.822,1.439 -0.797,1.44 -0.753,1.39 -0.707,1.322 -0.638,1.184 -0.524,1.02 -0.388,0.836 -0.251,0.602 -15.799,-7.746 0.115,-0.094 0.341,-0.302 0.547,-0.464 0.775,-0.602 0.456,-0.349 0.501,-0.37 0.549,-0.394 0.614,-0.395 0.662,-0.417 0.683,-0.418 0.754,-0.441 0.797,-0.418 0.822,-0.44 0.889,-0.416 0.913,-0.419 0.956,-0.394 1.003,-0.394 1.049,-0.349 1.093,-0.347 1.118,-0.303 1.162,-0.278 1.186,-0.255 1.231,-0.209 1.277,-0.161 1.299,-0.116 1.323,-0.069 1.368,-0.025 z"></path></g><g transform="translate(390.3008,100.6246)" id="g344"><path id="path346" style="fill:#009c3d;fill-opacity:1;fill-rule:nonzero;stroke:none" d="m 0,0 -0.023,-0.114 -0.044,-0.114 -0.047,-0.091 -0.067,-0.09 -0.069,-0.069 -0.089,-0.067 -0.093,-0.068 -0.203,-0.092 -0.25,-0.068 -0.273,-0.044 -0.317,-0.024 H -2.134 V 1.09 l 0.137,0.023 h 0.181 0.205 0.248 L -1.021,1.09 -0.749,1.044 -0.612,1 -0.498,0.954 -0.41,0.885 -0.317,0.84 -0.25,0.772 -0.181,0.681 -0.114,0.613 -0.067,0.522 -0.023,0.318 0,0.113 Z m 1.455,-4.157 -0.092,0.454 -0.089,0.682 -0.069,0.34 -0.067,0.318 -0.115,0.25 -0.113,0.227 -0.159,0.182 -0.159,0.159 -0.183,0.091 -0.225,0.067 v 0.046 l 0.272,0.091 0.247,0.113 0.207,0.159 0.181,0.183 0.092,0.09 0.066,0.114 0.069,0.113 0.045,0.137 0.045,0.136 0.047,0.136 0.022,0.136 V 0.204 L 1.455,0.454 1.432,0.68 1.386,0.885 1.318,1.089 1.226,1.248 1.138,1.407 1.023,1.544 0.888,1.657 0.703,1.771 0.5,1.884 0.25,1.975 0,2.043 -0.294,2.112 -0.635,2.157 -0.999,2.18 H -1.408 L -2.112,2.157 -2.657,2.112 -3.134,2.065 -3.542,1.999 v -6.678 h 1.408 v 2.747 h 0.636 0.274 l 0.225,-0.045 0.182,-0.09 0.182,-0.091 0.137,-0.16 0.114,-0.158 0.09,-0.228 0.046,-0.25 0.112,-0.612 0.092,-0.5 L 0,-4.27 0.046,-4.429 0.114,-4.589 0.16,-4.679 h 1.476 l -0.09,0.204 z"></path></g><g transform="translate(393.8008,99.4205)" id="g348"><path id="path350" style="fill:#009c3d;fill-opacity:1;fill-rule:nonzero;stroke:none" d="M 0,0 V -0.25 L -0.025,-0.5 -0.047,-0.75 -0.092,-0.977 -0.206,-1.454 -0.364,-1.908 -0.546,-2.317 -0.773,-2.726 -1.047,-3.089 -1.34,-3.429 -1.683,-3.748 -2.023,-4.021 -2.409,-4.27 -2.818,-4.452 -3.022,-4.543 -3.227,-4.611 -3.454,-4.679 -3.681,-4.725 -3.91,-4.77 -4.135,-4.792 -4.362,-4.815 H -4.59 -4.839 l -0.227,0.023 -0.228,0.022 -0.227,0.045 -0.227,0.046 -0.203,0.068 -0.228,0.068 -0.206,0.091 -0.384,0.205 -0.388,0.249 -0.341,0.273 -0.339,0.296 -0.296,0.34 -0.25,0.363 -0.228,0.409 -0.203,0.409 -0.136,0.454 -0.114,0.477 -0.045,0.227 -0.023,0.25 -0.024,0.25 V 0 0.249 l 0.024,0.251 0.023,0.226 0.045,0.251 0.114,0.454 0.136,0.454 0.203,0.408 0.228,0.41 0.25,0.362 0.296,0.342 0.316,0.317 0.364,0.273 0.363,0.25 0.409,0.204 0.206,0.091 0.203,0.068 0.205,0.068 0.227,0.069 0.228,0.022 0.227,0.045 0.226,0.024 h 0.227 0.046 0.228 L -4.135,4.814 -3.91,4.769 -3.681,4.747 -3.454,4.678 -3.227,4.61 -3.022,4.542 -2.818,4.451 -2.409,4.247 -2.023,3.997 -1.683,3.724 -1.34,3.407 -1.047,3.065 -0.773,2.703 -0.546,2.293 -0.364,1.885 -0.206,1.431 -0.092,0.977 -0.047,0.726 -0.025,0.5 0,0.249 Z M 1.361,0.635 1.316,0.931 1.271,1.226 1.201,1.521 1.113,1.816 1.021,2.089 0.929,2.361 0.792,2.634 0.679,2.884 0.521,3.134 0.384,3.384 0.203,3.611 0.044,3.838 -0.161,4.065 -0.342,4.269 -0.546,4.474 -0.773,4.655 -1.002,4.838 -1.228,5.019 -1.477,5.178 -1.728,5.314 -1.978,5.45 -2.251,5.564 -2.523,5.677 -2.797,5.768 -3.068,5.859 -3.364,5.927 -3.659,5.973 -3.954,6.019 -4.272,6.042 H -4.565 -4.59 -4.908 L -5.203,6.019 -5.521,5.973 -5.815,5.927 -6.088,5.859 -6.385,5.768 -6.658,5.677 -6.93,5.564 -7.203,5.45 -7.451,5.314 -7.724,5.178 -7.951,5.019 -8.201,4.838 -8.428,4.656 -8.634,4.474 -8.837,4.269 -9.042,4.065 -9.246,3.838 -9.428,3.611 -9.587,3.384 -9.747,3.134 -9.883,2.884 -10.019,2.634 -10.133,2.361 -10.247,2.089 -10.336,1.816 -10.428,1.521 -10.495,1.226 -10.541,0.931 -10.586,0.635 -10.609,0.34 V 0.022 -0.295 l 0.023,-0.296 0.045,-0.318 0.046,-0.296 0.067,-0.295 0.092,-0.294 0.089,-0.273 0.114,-0.273 0.114,-0.272 0.136,-0.25 0.136,-0.273 0.16,-0.227 0.159,-0.25 0.182,-0.226 0.204,-0.205 0.205,-0.227 0.203,-0.182 0.206,-0.204 0.227,-0.182 0.25,-0.159 0.227,-0.16 0.273,-0.135 0.248,-0.137 0.273,-0.113 0.272,-0.114 0.273,-0.091 0.297,-0.09 0.273,-0.068 0.294,-0.046 0.318,-0.046 0.295,-0.022 h 0.318 0.297 l 0.317,0.022 0.295,0.046 0.295,0.046 0.295,0.068 0.294,0.09 0.274,0.091 0.272,0.114 0.273,0.113 0.25,0.137 0.251,0.135 0.249,0.16 0.226,0.159 0.229,0.182 0.204,0.204 0.227,0.182 0.181,0.227 0.182,0.205 0.182,0.226 0.181,0.25 0.137,0.227 0.158,0.273 0.113,0.25 0.137,0.272 0.092,0.273 0.092,0.273 0.088,0.294 0.07,0.295 0.045,0.296 0.045,0.318 0.025,0.296 V 0.022 0.34 Z"></path></g><path id="path352" style="fill:#1c1c1a;fill-opacity:1;fill-rule:nonzero;stroke:none" d="m 403.865,50.957 h -1.139 v 59.167 h 1.139 z"></path><g id="g354"><g clip-path="url(#clipPath360)" id="g356"><g transform="translate(162.4312,76.9723)" id="g362"><path id="path364" style="fill:#18181b;fill-opacity:1;fill-rule:nonzero;stroke:none" d="m 0,0 c 1.082,-0.279 2.509,-0.397 4.098,-0.397 6.037,0 9.608,2.959 9.608,8.132 0,5.118 -3.571,7.569 -9.038,7.569 C 2.509,15.304 0.854,15.07 0,14.901 Z m -4.94,18.431 c 2.388,0.453 5.511,0.793 9.495,0.793 4.882,0 8.473,-1.135 10.758,-3.18 2.101,-1.827 3.399,-4.614 3.399,-8.024 0,-3.464 -1.018,-6.192 -3.016,-8.181 C 13.081,-2.954 8.821,-4.378 3.981,-4.378 2.509,-4.378 1.142,-4.329 0,-4.039 V -19.39 h -4.94 z"></path></g><g transform="translate(197.5845,71.6319)" id="g366"><path id="path368" style="fill:#18181b;fill-opacity:1;fill-rule:nonzero;stroke:none" d="m 0,0 c -5.462,0.118 -11.662,-0.859 -11.662,-6.202 0,-3.295 2.16,-4.773 4.669,-4.773 3.639,0 5.97,2.267 6.77,4.6 C -0.053,-5.868 0,-5.295 0,-4.78 Z m 4.892,-7.451 c 0,-2.395 0.11,-4.726 0.393,-6.599 H 0.801 l -0.466,3.469 H 0.171 c -1.485,-2.16 -4.49,-4.094 -8.421,-4.094 -5.575,0 -8.414,3.924 -8.414,7.91 0,6.656 5.921,10.286 16.55,10.229 v 0.572 c 0,2.27 -0.621,6.427 -6.258,6.371 -2.619,0 -5.29,-0.735 -7.22,-2.047 l -1.137,3.349 c 2.272,1.433 5.623,2.398 9.099,2.398 8.467,0 10.522,-5.747 10.522,-11.264 z"></path></g><g transform="translate(207.5376,76.5216)" id="g370"><path id="path372" style="fill:#18181b;fill-opacity:1;fill-rule:nonzero;stroke:none" d="M 0,0 C 0,3.235 -0.062,6.028 -0.231,8.583 H 4.152 L 4.38,3.179 h 0.175 c 1.247,3.7 4.32,6.038 7.668,6.038 0.506,0 0.914,-0.059 1.367,-0.174 V 4.375 C 13.023,4.436 12.51,4.495 11.826,4.495 8.304,4.495 5.802,1.816 5.12,-1.872 5.004,-2.622 4.948,-3.41 4.948,-4.274 V -18.94 h -5.01 z"></path></g><g transform="translate(241.2056,73.9542)" id="g374"><path id="path376" style="fill:#18181b;fill-opacity:1;fill-rule:nonzero;stroke:none" d="m 0,0 c 0,0.747 -0.053,1.488 -0.232,2.11 -0.794,3.076 -3.405,5.688 -7.159,5.688 -5.173,0 -8.31,-4.374 -8.31,-10.579 0,-5.517 2.616,-10.238 8.143,-10.238 3.235,0 6.026,1.988 7.16,5.462 C -0.177,-6.874 0,-5.905 0,-5.165 Z m 0,-12.168 h -0.125 c -1.466,-2.658 -4.543,-4.829 -8.975,-4.829 -6.429,0 -11.661,5.514 -11.661,13.936 0,10.286 6.652,14.846 12.461,14.846 4.262,0 7.101,-2.116 8.469,-4.782 H 0.293 L 0.467,11.15 H 5.236 C 5.058,8.875 5.011,6.497 5.011,3.588 V -27.634 H 0 Z"></path></g><g transform="translate(274.4863,65.0919)" id="g378"><path id="path380" style="fill:#18181b;fill-opacity:1;fill-rule:nonzero;stroke:none" d="m 0,0 c 0,-2.845 0.044,-5.347 0.213,-7.51 h -4.437 l -0.281,4.494 h -0.111 c -1.25,-2.222 -4.209,-5.118 -9.103,-5.118 -4.321,0 -9.502,2.439 -9.502,12.051 v 16.097 h 5.007 V 4.832 c 0,-5.233 1.653,-8.814 6.146,-8.814 3.354,0 5.693,2.329 6.596,4.597 0.284,0.691 0.461,1.601 0.461,2.565 V 20.014 H 0 Z"></path></g><g transform="translate(297.2295,74.0753)" id="g382"><path id="path384" style="fill:#18181b;fill-opacity:1;fill-rule:nonzero;stroke:none" d="m 0,0 c 0.055,3.125 -1.31,8.129 -6.874,8.129 -5.139,0 -7.306,-4.662 -7.69,-8.129 z m -14.623,-3.591 c 0.124,-6.756 4.378,-9.549 9.376,-9.549 3.591,0 5.809,0.625 7.634,1.368 l 0.912,-3.525 c -1.765,-0.795 -4.841,-1.766 -9.212,-1.766 -8.422,0 -13.538,5.635 -13.538,13.881 0,8.355 4.952,14.895 12.961,14.895 8.989,0 11.319,-7.902 11.319,-12.974 0,-1.021 -0.053,-1.818 -0.175,-2.385 z"></path></g><g transform="translate(304.792,63.61)" id="g386"><path id="path388" style="fill:#009c3d;fill-opacity:1;fill-rule:nonzero;stroke:none" d="m 0,0 c 2.221,-1.417 5.405,-2.5 8.806,-2.5 5.069,0 8.017,2.62 8.017,6.544 0,3.519 -2.038,5.628 -7.217,7.556 -6.256,2.278 -10.118,5.571 -10.118,10.917 0,5.98 4.955,10.411 12.396,10.411 3.863,0 6.768,-0.911 8.409,-1.867 l -1.352,-4.046 c -1.203,0.742 -3.77,1.814 -7.23,1.814 -5.237,0 -7.217,-3.12 -7.217,-5.741 0,-3.581 2.326,-5.347 7.614,-7.396 6.48,-2.557 9.727,-5.628 9.727,-11.253 0,-5.914 -4.328,-11.091 -13.367,-11.091 -3.695,0 -7.735,1.135 -9.778,2.497 z"></path></g><g transform="translate(341.8672,60.7101)" id="g390"><path id="path392" style="fill:#009c3d;fill-opacity:1;fill-rule:nonzero;stroke:none" d="m 0,0 c 4.775,0 8.358,4.49 8.358,10.744 0,4.67 -2.325,10.52 -8.242,10.52 C -5.743,21.264 -8.3,15.812 -8.3,10.578 -8.3,4.547 -4.898,0 -0.062,0 Z m -0.167,-3.752 c -7.392,0 -13.202,5.453 -13.202,14.164 0,9.206 6.09,14.617 13.661,14.617 7.9,0 13.248,-5.747 13.248,-14.107 0,-10.238 -7.107,-14.674 -13.657,-14.674 z"></path></g><g transform="translate(359.1597,57.5816)" id="g394"><path id="path396" style="fill:#009c3d;fill-opacity:1;fill-rule:nonzero;stroke:none" d="m 0,0 v 23.722 h -3.81 v 3.801 H 0 v 1.313 c 0,3.864 0.91,7.39 3.241,9.611 1.879,1.814 4.384,2.557 6.654,2.557 1.823,0 3.297,-0.405 4.263,-0.785 l -0.631,-3.88 c -0.785,0.35 -1.761,0.627 -3.239,0.627 -4.199,0 -5.339,-3.755 -5.339,-7.956 v -1.487 h 6.652 v -3.801 h -6.6 L 5.001,0 Z"></path></g><g transform="translate(378.9424,91.7042)" id="g398"><path id="path400" style="fill:#009c3d;fill-opacity:1;fill-rule:nonzero;stroke:none" d="M 0,0 V -6.599 H 7.176 V -10.4 H 0 v -14.853 c 0,-3.403 0.983,-5.342 3.759,-5.342 1.363,0 2.162,0.113 2.904,0.346 l 0.223,-3.816 c -0.965,-0.347 -2.507,-0.682 -4.435,-0.682 -2.333,0 -4.198,0.801 -5.402,2.103 -1.362,1.534 -1.932,3.988 -1.932,7.221 V -10.4 h -4.262 v 3.801 h 4.262 v 5.066 z"></path></g><g transform="translate(419.8037,86.7828)" id="g402"><path id="path404" style="fill:#009c3d;fill-opacity:1;fill-rule:nonzero;stroke:none" d="M 0,0 H 5.498 L 17.949,-22.72 H 18.03 V 0 h 4.043 V -28.217 H 16.898 L 4.124,-5.012 H 4.042 V -28.217 H 0 Z"></path></g><g transform="translate(458.6123,68.3893)" id="g406"><path id="path408" style="fill:#009c3d;fill-opacity:1;fill-rule:nonzero;stroke:none" d="m 0,0 c -0.404,0 -0.809,0.013 -1.213,0.04 -0.404,0.026 -0.808,0.041 -1.213,0.041 -0.512,0 -1.172,-0.035 -1.981,-0.101 -0.808,-0.068 -1.596,-0.237 -2.364,-0.505 -0.769,-0.27 -1.429,-0.668 -1.981,-1.193 -0.553,-0.526 -0.829,-1.247 -0.829,-2.163 0,-0.539 0.121,-1.018 0.364,-1.435 0.242,-0.419 0.546,-0.768 0.909,-1.052 0.364,-0.282 0.775,-0.499 1.233,-0.646 0.458,-0.149 0.903,-0.223 1.334,-0.223 1.887,0 3.315,0.519 4.286,1.557 C -0.485,-4.643 0,-3.356 0,-1.819 Z m -11.279,9.338 c 0.943,0.566 1.981,1.031 3.112,1.395 1.133,0.364 2.359,0.546 3.68,0.546 2.964,0 5.086,-0.714 6.367,-2.143 C 3.16,7.708 3.8,5.579 3.8,2.749 v -8.531 c 0,-1.185 0.013,-2.081 0.041,-2.688 0.026,-0.606 0.066,-1.057 0.12,-1.354 H 0.404 v 2.668 H 0.323 c -0.216,-0.323 -0.511,-0.667 -0.889,-1.03 -0.378,-0.364 -0.829,-0.702 -1.354,-1.011 -0.526,-0.31 -1.132,-0.573 -1.82,-0.788 -0.687,-0.216 -1.462,-0.324 -2.324,-0.324 -1.105,0 -2.123,0.121 -3.052,0.364 -0.93,0.242 -1.732,0.627 -2.406,1.152 -0.674,0.525 -1.192,1.193 -1.556,2.001 -0.364,0.809 -0.546,1.779 -0.546,2.911 0,1.294 0.316,2.371 0.95,3.234 0.633,0.862 1.422,1.556 2.365,2.082 0.943,0.526 1.981,0.903 3.113,1.132 1.132,0.228 2.183,0.344 3.154,0.344 h 2.021 c 0.592,0 1.266,-0.028 2.021,-0.081 0,1.778 -0.371,3.119 -1.112,4.022 -0.741,0.903 -2.068,1.355 -3.982,1.355 -1.078,0 -2.149,-0.189 -3.214,-0.566 -1.065,-0.378 -1.987,-0.89 -2.769,-1.537 z"></path></g><g transform="translate(466.5361,79.1827)" id="g410"><path id="path412" style="fill:#009c3d;fill-opacity:1;fill-rule:nonzero;stroke:none" d="m 0,0 h 3.558 v -3.193 h 0.08 c 0.512,1.077 1.26,1.961 2.244,2.648 0.984,0.687 2.028,1.031 3.133,1.031 0.567,0 1.024,-0.028 1.375,-0.081 0.35,-0.054 0.728,-0.122 1.132,-0.203 v -3.395 c -0.351,0.134 -0.708,0.228 -1.071,0.282 -0.364,0.055 -0.708,0.082 -1.031,0.082 -1.698,0 -3.06,-0.755 -4.083,-2.265 C 4.312,-6.603 3.8,-8.651 3.8,-11.238 v -9.379 H 0 Z"></path></g><path id="path414" style="fill:#009c3d;fill-opacity:1;fill-rule:nonzero;stroke:none" d="m 480.443,79.183 h 3.8 V 58.566 h -3.8 z m 4.042,4.608 H 480.2 v 4.286 h 4.285 z"></path><g transform="translate(491.1558,82.255)" id="g416"><path id="path418" style="fill:#009c3d;fill-opacity:1;fill-rule:nonzero;stroke:none" d="M 0,0 C 0.054,0.431 0.155,0.91 0.303,1.436 0.451,1.961 0.667,2.453 0.95,2.911 1.233,3.369 1.603,3.753 2.062,4.063 2.52,4.373 3.099,4.528 3.8,4.528 4.312,4.528 4.851,4.428 5.417,4.225 5.983,4.022 6.536,3.807 7.075,3.578 7.613,3.349 8.132,3.14 8.631,2.952 9.13,2.763 9.594,2.668 10.026,2.668 c 0.62,-0.054 1.071,0.128 1.354,0.547 0.283,0.417 0.452,0.854 0.506,1.313 h 1.859 C 13.691,4.097 13.59,3.619 13.442,3.093 13.293,2.567 13.078,2.076 12.795,1.618 12.512,1.159 12.134,0.775 11.663,0.465 11.191,0.155 10.619,0 9.945,0 9.406,0 8.86,0.102 8.308,0.304 7.755,0.506 7.209,0.722 6.67,0.95 6.131,1.179 5.612,1.388 5.114,1.577 4.615,1.765 4.15,1.86 3.719,1.86 3.099,1.914 2.648,1.732 2.365,1.314 2.083,0.896 1.914,0.458 1.86,0 Z m -2.264,-3.072 h 3.679 v -3.274 h 0.081 c 0.566,1.185 1.468,2.108 2.709,2.768 1.238,0.661 2.587,0.992 4.042,0.992 2.668,0 4.622,-0.783 5.862,-2.346 1.24,-1.563 1.86,-3.733 1.86,-6.508 v -12.249 h -3.801 v 10.672 c 0,2.425 -0.31,4.231 -0.929,5.417 -0.62,1.186 -1.765,1.833 -3.436,1.941 -1.079,0 -2.016,-0.209 -2.81,-0.627 C 4.197,-6.704 3.544,-7.284 3.032,-8.024 2.52,-8.766 2.143,-9.661 1.9,-10.712 1.657,-11.764 1.536,-12.91 1.536,-14.149 v -9.54 h -3.8 z"></path></g><g transform="translate(513.9561,68.8741)" id="g420"><path id="path422" style="fill:#009c3d;fill-opacity:1;fill-rule:nonzero;stroke:none" d="m 0,0 c 0,-0.917 0.128,-1.833 0.384,-2.749 0.256,-0.917 0.647,-1.746 1.173,-2.486 0.525,-0.742 1.192,-1.341 2.001,-1.8 0.808,-0.458 1.778,-0.687 2.91,-0.687 1.105,0 2.062,0.229 2.871,0.687 0.808,0.459 1.475,1.058 2,1.8 0.526,0.74 0.917,1.569 1.173,2.486 0.256,0.916 0.384,1.832 0.384,2.749 0,0.971 -0.148,1.921 -0.445,2.85 C 12.154,3.78 11.737,4.609 11.198,5.336 10.659,6.064 9.985,6.644 9.177,7.075 8.368,7.506 7.465,7.722 6.468,7.722 5.444,7.722 4.534,7.506 3.739,7.075 2.944,6.644 2.271,6.064 1.718,5.336 1.166,4.609 0.741,3.78 0.445,2.85 0.148,1.921 0,0.971 0,0 m -4.043,0 c 0,1.562 0.25,3.005 0.749,4.325 0.498,1.321 1.212,2.46 2.142,3.417 0.93,0.956 2.034,1.704 3.315,2.243 1.279,0.539 2.714,0.809 4.305,0.809 1.563,0 2.992,-0.27 4.285,-0.809 1.294,-0.539 2.399,-1.287 3.315,-2.243 0.916,-0.957 1.624,-2.096 2.123,-3.417 0.498,-1.32 0.748,-2.763 0.748,-4.325 0,-1.482 -0.257,-2.877 -0.768,-4.184 -0.513,-1.307 -1.227,-2.453 -2.143,-3.437 -0.917,-0.983 -2.021,-1.758 -3.315,-2.324 -1.294,-0.566 -2.709,-0.849 -4.245,-0.849 -1.563,0 -2.985,0.283 -4.265,0.849 -1.28,0.566 -2.385,1.341 -3.315,2.324 -0.93,0.984 -1.651,2.13 -2.163,3.437 -0.512,1.307 -0.768,2.702 -0.768,4.184"></path></g></g></g></g></svg>